<svg width="11" height="11" viewBox="0 0 11 11" fill="none" xmlns="http://www.w3.org/2000/svg">
<path d="M10.2294 8.1035L10.2084 0.0263238L2.13125 0.00536565C2.0471 -0.00602801 1.96148 0.00079191 1.88019 0.0253641C1.7989 0.0499359 1.72384 0.0916869 1.6601 0.147789C1.59635 0.203891 1.5454 0.273035 1.51069 0.35054C1.47599 0.428045 1.45834 0.512102 1.45895 0.597019C1.45956 0.681937 1.4784 0.765733 1.51421 0.842735C1.55002 0.919736 1.60195 0.988145 1.66649 1.04333C1.73104 1.09852 1.80668 1.13919 1.88831 1.1626C1.96994 1.18601 2.05565 1.1916 2.13963 1.17901L8.19227 1.20416L0.173778 9.22265C0.0626111 9.33382 0.00015822 9.48459 0.000157883 9.64181C0.000157546 9.79902 0.0626114 9.9498 0.173779 10.061C0.284946 10.1721 0.435723 10.2346 0.592937 10.2346C0.750153 10.2346 0.900927 10.1721 1.01209 10.061L9.03059 2.04247L9.05574 8.09512C9.05629 8.25242 9.11931 8.40306 9.23094 8.51389C9.34256 8.62473 9.49364 8.68669 9.65094 8.68613C9.80824 8.68557 9.95888 8.62255 10.0697 8.51093C10.1806 8.39931 10.2425 8.24823 10.242 8.09092L10.2294 8.1035Z" fill="black"/>
</svg>
