<svg width="87" height="39" viewBox="0 0 87 39" fill="none" xmlns="http://www.w3.org/2000/svg">
<path d="M21.708 20.98C21.492 21.448 21.132 22.132 20.664 23.032C20.196 23.932 19.764 24.616 19.44 25.12L18.828 25.948V25.984L18.792 26.02C18.756 26.056 18.756 26.056 18.756 26.092L17.604 27.388C17.28 27.64 16.956 27.856 16.56 28.036C15.876 28.252 15.3 28.108 14.832 27.568C14.76 27.496 14.688 27.424 14.652 27.316C14.58 27.208 14.508 27.136 14.472 27.064C14.04 26.092 13.788 25.048 13.752 23.896C13.644 21.7 13.644 19.396 13.824 17.056C13.932 15.472 14.004 13.924 14.004 12.412C13.176 13.528 12.348 14.788 11.592 16.264C11.304 16.804 11.052 17.272 10.8 17.704C10.728 17.812 10.656 17.884 10.62 17.992C9.792 19.432 8.964 20.872 8.1 22.276C7.848 22.708 7.56 23.176 7.2 23.68C6.84 24.184 6.516 24.616 6.228 25.012C6.192 25.048 6.192 25.084 6.156 25.12C5.652 25.804 5.04 26.452 4.32 27.136C3.6 27.82 2.844 28.072 2.016 27.964C1.44 27.784 1.08 27.352 0.972 26.74C0.828 26.128 0.756 25.552 0.756 25.048C0.756 24.112 0.936 22.924 1.332 21.52C1.692 20.116 2.052 18.892 2.412 17.92L4.104 13.168C5.148 10.288 6.372 7.552 7.848 4.96C7.884 4.888 7.956 4.744 8.1 4.528C8.244 4.348 8.388 4.132 8.532 3.952C8.64 3.772 8.748 3.7 8.82 3.664C8.856 3.7 8.892 3.736 8.964 3.844C9.036 3.952 9.108 4.096 9.216 4.204C9.324 4.312 9.396 4.42 9.504 4.528C9.54 4.6 9.576 4.672 9.612 4.708C9.576 4.744 9.54 4.816 9.504 4.852C9.468 4.888 9.432 4.924 9.396 4.96C8.82 5.716 8.244 6.76 7.668 8.02C7.056 9.28 6.624 10.324 6.3 11.116C5.652 12.808 5.004 14.536 4.392 16.264C4.284 16.588 4.14 16.948 4.032 17.308C3.276 19.432 2.664 21.592 2.196 23.788C2.16 23.932 2.088 24.22 2.052 24.688C2.016 25.156 2.016 25.588 2.052 25.984C2.088 26.416 2.268 26.632 2.556 26.632C2.844 26.632 3.204 26.416 3.636 25.984C4.032 25.588 4.428 25.12 4.824 24.652C5.22 24.184 5.472 23.824 5.652 23.572C6.804 21.772 7.92 19.972 9.036 18.136L10.476 15.688C11.16 14.464 11.88 13.24 12.636 12.052C12.744 11.872 12.924 11.656 13.104 11.368C13.284 11.116 13.5 10.864 13.752 10.612C14.004 10.396 14.22 10.288 14.4 10.288C14.832 10.288 15.12 10.54 15.228 11.044C15.336 11.584 15.372 12.052 15.372 12.52C15.372 12.916 15.336 13.276 15.3 13.672C15.264 14.14 15.264 14.608 15.228 15.076C15.048 17.632 14.976 20.188 15.012 22.708C15.012 23.032 15.048 23.5 15.084 24.112C15.12 24.76 15.228 25.372 15.372 25.912C15.48 26.452 15.696 26.74 16.02 26.74C16.344 26.74 16.74 26.488 17.172 25.984C17.604 25.48 18 24.94 18.36 24.364C18.72 23.824 18.972 23.392 19.116 23.14C19.404 22.6 19.728 22.024 20.052 21.376C20.88 19.648 21.672 17.884 22.428 16.12L22.932 14.968C23.544 13.636 24.084 12.16 24.624 10.612C24.804 10.072 24.984 9.604 25.164 9.136C25.488 8.236 25.776 7.372 26.064 6.508L26.532 4.96C26.676 4.96 26.82 4.996 26.964 5.032C27.036 5.068 27.108 5.068 27.18 5.068C27.18 5.104 27.18 5.104 27.216 5.104C27.324 5.14 27.432 5.14 27.54 5.176C27.648 5.212 27.72 5.212 27.792 5.248C27.756 5.284 27.72 5.392 27.684 5.572C27.648 5.752 27.576 5.932 27.54 6.112C27.504 6.328 27.432 6.472 27.396 6.544C27.144 7.372 26.856 8.164 26.604 8.956C26.352 9.604 26.136 10.252 25.92 10.9C25.812 11.224 25.668 11.584 25.56 11.944C25.164 12.988 24.732 14.032 24.336 15.076L21.708 20.98ZM30.3182 16.156C29.7782 16.12 29.2742 16.3 28.8062 16.696C28.3022 17.092 27.9062 17.56 27.6542 18.1C28.1942 17.92 28.6982 17.632 29.2022 17.308C29.6702 16.984 30.0662 16.588 30.3182 16.156ZM31.3982 15.4C31.6502 15.796 31.6502 16.192 31.3982 16.66C31.1462 17.128 30.7862 17.524 30.3182 17.92C29.8502 18.316 29.4182 18.604 29.0942 18.784C28.4822 19.072 27.9782 19.252 27.6542 19.36C27.5102 19.396 27.4022 19.432 27.3662 19.468C27.4382 19.792 27.5462 20.008 27.6542 20.152C27.7622 20.296 27.9422 20.44 28.1942 20.548C28.4822 20.692 28.8062 20.764 29.1662 20.8C29.4902 20.836 29.8502 20.872 30.1742 20.872C31.0742 20.872 31.8662 20.728 32.5142 20.44C33.1262 20.152 33.6662 19.792 34.0982 19.396C34.4942 19 34.8542 18.676 35.1062 18.352C35.3222 18.1 35.5022 17.884 35.6462 17.776C35.6822 17.812 35.7542 17.848 35.8622 17.92C35.9702 17.992 36.0782 18.064 36.1862 18.172C36.3302 18.28 36.4382 18.388 36.5462 18.46L35.3942 19.864C35.2142 20.008 35.0702 20.152 34.9622 20.26C34.8542 20.368 34.7102 20.44 34.6022 20.548C34.4582 20.656 34.2782 20.8 34.0262 20.98C32.8742 21.736 31.4342 22.096 29.6702 22.096C28.6262 22.096 27.7622 21.808 27.0422 21.232C26.2862 20.656 26.0342 19.756 26.2862 18.496C26.5022 17.524 26.9342 16.732 27.5462 16.156C27.7982 15.904 28.1582 15.652 28.6262 15.4C29.0942 15.148 29.5262 15.04 29.9582 15.04H30.1022C30.3542 15.004 30.5702 15.004 30.8222 15.04C31.0382 15.076 31.2182 15.22 31.3982 15.4ZM41.515 17.344C41.515 17.236 41.515 17.164 41.551 17.056C40.651 17.128 39.823 17.38 39.067 17.776C38.311 18.208 37.735 18.892 37.339 19.792C37.087 20.476 37.051 20.836 37.267 20.944C37.447 21.052 37.771 20.944 38.203 20.692C38.599 20.44 39.031 20.152 39.427 19.828C39.823 19.504 40.147 19.216 40.327 19C40.723 18.532 41.119 17.956 41.515 17.344ZM41.767 15.868H41.803V15.94L41.839 16.012C41.875 15.796 41.947 15.58 42.127 15.328C42.271 15.112 42.451 14.932 42.631 14.824C42.883 14.716 43.135 14.716 43.387 14.824C43.603 14.932 43.711 15.148 43.711 15.472C43.711 15.724 43.639 16.012 43.495 16.372C43.315 16.768 43.171 17.056 43.063 17.272V17.308C43.027 17.344 43.027 17.38 42.991 17.452C42.955 17.524 42.919 17.596 42.883 17.668C42.847 17.74 42.811 17.776 42.811 17.812C42.811 18.496 42.955 19.144 43.207 19.756C43.459 20.404 43.927 20.728 44.539 20.728C44.971 20.728 45.403 20.584 45.835 20.332C46.231 20.08 46.555 19.828 46.807 19.576L48.463 17.812C48.643 17.92 48.823 18.064 49.003 18.208C49.183 18.352 49.363 18.496 49.543 18.604C49.507 18.604 49.507 18.604 49.507 18.64C49.471 18.676 49.471 18.748 49.435 18.784C49.399 18.82 49.327 18.892 49.291 18.928C49.255 18.964 49.219 19.036 49.183 19.072C49.147 19.108 49.111 19.18 49.075 19.216C48.535 19.864 47.887 20.512 47.131 21.124C46.375 21.736 45.547 22.06 44.647 22.06C43.711 22.06 43.027 21.772 42.595 21.232C42.163 20.764 41.875 20.152 41.695 19.468C41.587 19.54 41.479 19.612 41.407 19.72C41.371 19.792 41.299 19.864 41.263 19.9C41.011 20.152 40.795 20.404 40.615 20.584C40.435 20.764 40.183 20.98 39.895 21.196C39.535 21.52 39.139 21.772 38.743 21.988C38.311 22.204 37.843 22.312 37.303 22.312C36.907 22.312 36.547 22.168 36.295 21.88C36.007 21.592 35.863 21.232 35.863 20.836C35.863 20.044 36.079 19.324 36.475 18.64C36.871 17.956 37.267 17.452 37.735 17.092C38.923 16.192 40.255 15.724 41.731 15.688C41.731 15.724 41.731 15.724 41.767 15.724V15.868ZM51.248 14.68C51.32 14.716 51.428 14.752 51.608 14.824C51.752 14.932 51.896 15.004 52.076 15.112C52.22 15.22 52.328 15.292 52.4 15.328C52.364 15.508 52.292 15.652 52.184 15.796C52.112 15.94 52.076 16.084 52.04 16.228C52.292 16.048 52.472 15.94 52.58 15.868C52.652 15.832 52.724 15.76 52.832 15.724C52.904 15.688 53.012 15.616 53.156 15.58C53.264 15.544 53.48 15.472 53.732 15.364C54.056 15.256 54.416 15.22 54.812 15.184C55.208 15.184 55.568 15.22 55.892 15.328V15.364H55.928V15.436L55.964 15.94V16.264C56 16.372 56 16.516 56 16.696C55.856 16.696 55.712 16.66 55.532 16.624C55.424 16.624 55.352 16.624 55.28 16.588C54.164 16.516 53.228 16.876 52.4 17.668C52.004 17.992 51.608 18.424 51.212 18.892C50.816 19.396 50.456 19.864 50.168 20.296L49.16 22.528L47.936 21.952L48.764 20.116C48.836 19.936 48.908 19.792 48.98 19.684C49.052 19.54 49.124 19.36 49.16 19.18C49.268 18.892 49.484 18.424 49.772 17.812C50.06 17.2 50.348 16.552 50.636 15.94C50.924 15.328 51.14 14.932 51.248 14.68ZM60.7733 15.616L59.4773 17.812C59.4413 17.848 59.4053 17.92 59.3693 17.992C59.1893 18.316 59.0093 18.676 58.8293 19.108C58.6133 19.576 58.5053 19.972 58.5053 20.296C58.5053 20.584 58.5773 20.764 58.6853 20.8C58.7933 20.836 58.9733 20.872 59.2613 20.872H59.4053C60.3053 20.872 61.2773 20.584 62.2493 19.972C63.2213 19.36 64.1213 18.784 64.9133 18.208L64.9853 18.136L65.1653 18.028C65.2733 17.956 65.3453 17.884 65.4533 17.812C65.5253 17.74 65.5973 17.704 65.6693 17.668C65.7053 17.74 65.8133 17.848 65.9213 17.992C66.0293 18.136 66.1013 18.28 66.2093 18.424C66.3173 18.568 66.3533 18.676 66.3893 18.748C66.3533 18.784 66.2813 18.856 66.1733 18.928C66.0653 19.036 65.9573 19.108 65.8493 19.18C65.7773 19.252 65.7053 19.288 65.6333 19.324L64.9133 19.9L63.7253 20.656C63.2213 20.98 62.5373 21.304 61.7093 21.664C60.8813 22.06 60.1253 22.24 59.5133 22.24C58.9373 22.24 58.3973 22.132 57.9293 21.952C57.4253 21.772 57.1733 21.268 57.1733 20.476C57.1733 20.008 57.2813 19.468 57.5333 18.928C57.7493 18.388 57.9653 17.884 58.1813 17.452C58.1813 17.416 58.1813 17.416 58.2173 17.38C58.2893 17.236 58.4333 16.984 58.6493 16.588C58.8653 16.228 59.0813 15.868 59.2973 15.508C59.5133 15.148 59.6573 14.932 59.7653 14.86C59.8373 14.896 59.9453 14.932 60.0893 15.04C60.2333 15.148 60.3773 15.256 60.5213 15.364C60.6653 15.472 60.7373 15.58 60.7733 15.616ZM62.9693 11.8C62.9693 12.124 62.8613 12.34 62.6813 12.484C62.5013 12.664 62.2853 12.736 62.0693 12.7C61.8173 12.7 61.6373 12.592 61.4933 12.412C61.3133 12.16 61.2773 11.908 61.3493 11.656C61.4213 11.44 61.5653 11.26 61.7453 11.116C61.9253 10.972 62.1053 10.9 62.2853 10.9C62.6093 10.9 62.8253 10.972 62.8973 11.116C62.9333 11.26 62.9693 11.476 62.9693 11.8ZM74.8119 7.156C74.0559 7.768 73.2639 8.848 72.3639 10.324C71.4639 11.8 70.7439 13.096 70.1679 14.212C71.2119 13.096 72.1479 11.908 73.0479 10.648C73.9119 9.388 74.4879 8.236 74.8119 7.156ZM66.5679 21.376C65.8119 23.032 65.1639 24.544 64.6599 25.912C64.1559 27.316 63.9759 28.252 64.1559 28.72C64.5519 28.54 65.1279 28.036 65.8119 27.172C66.4959 26.308 67.0359 25.336 67.4319 24.292C67.7919 23.248 67.6839 22.384 67.1439 21.7C67.0719 21.592 66.9639 21.52 66.8559 21.412C66.7479 21.412 66.6759 21.412 66.5679 21.376ZM62.8599 28.144C62.8599 27.46 63.0759 26.56 63.4719 25.444C63.8679 24.328 64.1919 23.392 64.4799 22.708C64.5159 22.672 64.5159 22.672 64.5159 22.636C64.7319 22.096 64.9479 21.592 65.1999 21.124C65.0919 21.088 65.0199 21.052 64.9119 21.016C64.7319 20.944 64.5159 20.836 64.2639 20.656C63.7959 20.26 63.6159 19.864 63.7599 19.54C63.9039 19.216 64.2279 19.036 64.7319 19.072C65.0559 19.108 65.3439 19.18 65.5959 19.288C65.7759 19.324 65.9199 19.36 66.0279 19.396C66.1359 19.216 66.2079 19 66.2799 18.82C66.3519 18.64 66.4239 18.496 66.5319 18.316C66.5679 18.244 66.6039 18.172 66.6399 18.1L66.7839 17.812L67.3239 16.768C67.6119 16.192 67.9359 15.58 68.2959 14.896C68.6199 14.284 68.9439 13.708 69.2319 13.168C69.3399 12.952 69.4839 12.736 69.5919 12.484C69.6639 12.376 69.7359 12.268 69.8079 12.16L71.4999 9.208H71.5359C71.9319 8.56 72.3279 7.948 72.7599 7.408C73.0479 7.012 73.4439 6.58 73.9479 6.112C74.4519 5.68 74.9919 5.5 75.5319 5.536C75.9999 5.644 76.2159 5.932 76.2519 6.4C76.2519 6.868 76.1799 7.372 75.9999 7.876C75.8199 8.38 75.6759 8.74 75.5679 8.992C75.3879 9.352 75.2079 9.64 75.0639 9.892C74.9559 10.036 74.8839 10.18 74.8119 10.324C74.3439 11.044 73.8039 11.8 73.1919 12.592C73.0479 12.772 72.9039 12.952 72.7599 13.132C72.7239 13.204 72.6519 13.276 72.6159 13.312C72.5799 13.348 72.5439 13.42 72.4719 13.528L70.8879 15.364C70.8159 15.436 70.7439 15.508 70.6719 15.544C70.4919 15.724 70.3479 15.904 70.2039 16.084C69.9879 16.336 69.6999 16.66 69.3399 16.984L68.8359 17.488C68.6559 17.668 68.5479 17.776 68.4759 17.848C68.4039 17.92 68.3319 17.956 68.2959 17.992C68.2599 18.028 68.2599 18.028 68.2599 18.028C68.2239 18.064 68.2239 18.064 68.1879 18.1C68.1519 18.136 68.1519 18.208 68.1159 18.28C68.0799 18.352 68.0079 18.46 67.8999 18.64C67.8639 18.748 67.7919 18.856 67.6839 19.036C67.5759 19.216 67.5039 19.396 67.4319 19.576C67.3239 19.756 67.2879 19.9 67.2519 20.008L67.2879 20.044C67.3239 20.08 67.3599 20.08 67.3959 20.08C67.4319 20.116 67.4679 20.116 67.5039 20.116C70.3479 20.116 72.7239 19.324 74.7039 17.74L74.7759 17.668C74.8119 17.632 74.8839 17.596 74.9199 17.56C74.9559 17.524 75.0279 17.524 75.0999 17.524C75.1359 17.596 75.1719 17.668 75.2799 17.776C75.3519 17.884 75.4239 17.992 75.4959 18.064L75.5319 18.1C75.5679 18.172 75.6399 18.244 75.7119 18.316C75.7839 18.424 75.8199 18.496 75.8559 18.568L74.3439 19.648C73.5879 20.152 72.6519 20.584 71.5359 20.944C70.4199 21.304 69.4479 21.484 68.6199 21.484C68.7639 21.808 68.8359 22.06 68.8719 22.312C68.9079 22.564 68.9079 22.888 68.9079 23.212C68.9079 24.004 68.6199 24.94 68.0799 26.02C67.5039 27.1 66.8559 28.036 66.0999 28.864C65.3439 29.692 64.6239 30.088 64.0119 30.088C63.6879 30.088 63.3999 29.944 63.1839 29.656C62.9679 29.368 62.8599 29.044 62.8599 28.72V28.144ZM73.5798 29.152C74.2638 29.692 74.9838 29.62 75.6678 29.008C76.3518 28.396 76.9638 27.568 77.5038 26.524C78.0438 25.48 78.4758 24.544 78.7998 23.716L78.2238 24.076C78.0438 24.184 77.6838 24.472 77.0718 24.868C76.4598 25.3 75.8478 25.804 75.1998 26.344C74.5158 26.92 74.0118 27.46 73.6518 27.964C73.2918 28.504 73.2558 28.9 73.5798 29.152ZM78.5838 22.312C78.6558 22.276 78.7638 22.204 78.8718 22.132C79.0158 22.06 79.1598 21.988 79.3038 21.88C79.4478 21.808 79.5198 21.736 79.5558 21.628L80.2038 19.576C80.0958 19.648 79.9878 19.756 79.8078 19.9C79.5918 20.08 79.3758 20.26 79.1238 20.44C78.7638 20.692 78.3678 20.944 77.9358 21.16C77.4678 21.412 76.9998 21.484 76.5318 21.448C76.1358 21.34 75.9198 21.16 75.8118 20.908C75.7038 20.656 75.6678 20.368 75.6678 20.044C75.6678 19.468 75.8478 18.784 76.2078 18.028C76.5318 17.272 76.8558 16.624 77.1798 16.084C77.3958 15.688 77.5398 15.4 77.5758 15.292C77.7918 15.328 78.0438 15.4 78.2958 15.508C78.4758 15.58 78.6558 15.652 78.8358 15.688C78.7998 15.724 78.7998 15.76 78.7998 15.796C78.6198 16.156 78.3678 16.624 78.1158 17.164C77.8278 17.74 77.5758 18.316 77.3598 18.856C77.1078 19.396 76.9998 19.828 76.9638 20.116C76.9998 20.08 77.0718 20.08 77.1798 20.044C77.2518 20.008 77.3238 19.972 77.3958 19.936C77.5758 19.864 77.7558 19.756 78.0078 19.576C78.2238 19.432 78.4038 19.324 78.5118 19.216C78.6198 19.144 78.6918 19.072 78.7638 19C78.7998 18.964 78.8358 18.964 78.8718 18.928C78.9078 18.892 78.9438 18.892 78.9798 18.856L79.1958 18.64C79.2678 18.568 79.3398 18.532 79.3758 18.496L80.7798 17.092C80.9598 16.912 81.1038 16.732 81.1758 16.624C81.2478 16.516 81.2838 16.444 81.3198 16.372C81.3558 16.264 81.4278 16.156 81.5358 15.976C81.8598 15.58 82.1478 15.4 82.4358 15.508C82.7238 15.616 82.8678 15.868 82.8678 16.192C82.8678 16.372 82.8318 16.552 82.7598 16.696C82.6518 16.876 82.5798 17.02 82.5078 17.128C82.4718 17.164 82.4358 17.236 82.3998 17.308C82.3278 17.416 82.2198 17.74 82.0398 18.208C81.8598 18.712 81.7158 19.216 81.5358 19.72C81.3558 20.26 81.2838 20.62 81.2478 20.8C81.3558 20.764 81.6798 20.584 82.1838 20.332C82.6518 20.08 83.1558 19.828 83.6958 19.54C84.2358 19.252 85.0998 18.676 86.2878 17.776L86.4678 19.504L82.8678 21.484C82.7598 21.52 82.6878 21.592 82.6158 21.628C82.5078 21.7 82.3998 21.772 82.2558 21.808L81.0318 22.456C80.9958 22.492 80.9958 22.492 80.9598 22.492C80.8518 22.564 80.7438 22.6 80.7078 22.636C80.6358 22.672 80.5998 22.744 80.5638 22.78C80.5278 22.852 80.4918 22.96 80.4558 23.068C80.4198 23.176 80.3478 23.356 80.2758 23.536C80.2398 23.644 80.2038 23.752 80.1678 23.86C79.9518 24.436 79.7358 24.976 79.4838 25.516C79.4478 25.624 79.3758 25.732 79.3398 25.84C79.3038 25.948 79.2318 26.056 79.1958 26.164C79.1598 26.272 79.0878 26.38 79.0158 26.452C78.9798 26.56 78.9078 26.668 78.8718 26.776C78.5478 27.496 78.0798 28.252 77.4678 29.044C76.8558 29.872 76.1718 30.412 75.4158 30.7C74.5878 30.952 73.7958 30.844 73.1118 30.448C72.3918 30.052 72.0318 29.548 72.0318 28.936C72.0318 28.36 72.2118 27.82 72.6078 27.28C72.9678 26.776 73.3278 26.344 73.6518 26.02C75.0558 24.616 76.5678 23.464 78.1518 22.564C78.2958 22.456 78.4398 22.384 78.5838 22.312Z" fill="#68262A"/>
<path d="M12.9844 33.7344L14.2764 36.0576L15.5801 33.7344H15.9961L14.458 36.3916V38H14.0977V36.3916L12.5566 33.7344H12.9844ZM19.6875 35.6387V36.0957C19.6875 36.3945 19.6484 36.665 19.5703 36.9072C19.4941 37.1475 19.3828 37.3535 19.2363 37.5254C19.0918 37.6973 18.918 37.8291 18.7148 37.9209C18.5117 38.0127 18.2832 38.0586 18.0293 38.0586C17.7812 38.0586 17.5547 38.0127 17.3496 37.9209C17.1465 37.8291 16.9717 37.6973 16.8252 37.5254C16.6787 37.3535 16.5654 37.1475 16.4854 36.9072C16.4053 36.665 16.3652 36.3945 16.3652 36.0957V35.6387C16.3652 35.3398 16.4043 35.0703 16.4824 34.8301C16.5625 34.5879 16.6758 34.3809 16.8223 34.209C16.9688 34.0371 17.1436 33.9053 17.3467 33.8135C17.5498 33.7217 17.7754 33.6758 18.0234 33.6758C18.2773 33.6758 18.5059 33.7217 18.709 33.8135C18.9121 33.9053 19.0869 34.0371 19.2334 34.209C19.3799 34.3809 19.4922 34.5879 19.5703 34.8301C19.6484 35.0703 19.6875 35.3398 19.6875 35.6387ZM19.3301 36.0957V35.6328C19.3301 35.3809 19.3008 35.1543 19.2422 34.9531C19.1855 34.752 19.1006 34.5801 18.9873 34.4375C18.876 34.2949 18.7393 34.1855 18.5771 34.1094C18.415 34.0332 18.2305 33.9951 18.0234 33.9951C17.8223 33.9951 17.6416 34.0332 17.4814 34.1094C17.3213 34.1855 17.1846 34.2949 17.0713 34.4375C16.96 34.5801 16.874 34.752 16.8135 34.9531C16.7549 35.1543 16.7256 35.3809 16.7256 35.6328V36.0957C16.7256 36.3496 16.7549 36.5781 16.8135 36.7812C16.874 36.9824 16.9609 37.1553 17.0742 37.2998C17.1875 37.4424 17.3242 37.5518 17.4844 37.6279C17.6465 37.7041 17.8281 37.7422 18.0293 37.7422C18.2383 37.7422 18.4229 37.7041 18.583 37.6279C18.7432 37.5518 18.8789 37.4424 18.9902 37.2998C19.1016 37.1553 19.1855 36.9824 19.2422 36.7812C19.3008 36.5781 19.3301 36.3496 19.3301 36.0957ZM23.1738 33.7344H23.5342V36.623C23.5342 36.9434 23.4668 37.21 23.332 37.4229C23.1973 37.6357 23.0156 37.7949 22.7871 37.9004C22.5605 38.0059 22.3096 38.0586 22.0342 38.0586C21.751 38.0586 21.4961 38.0059 21.2695 37.9004C21.043 37.7949 20.8633 37.6357 20.7305 37.4229C20.5996 37.21 20.5342 36.9434 20.5342 36.623V33.7344H20.8916V36.623C20.8916 36.8711 20.9404 37.0791 21.0381 37.2471C21.1357 37.415 21.2705 37.541 21.4424 37.625C21.6143 37.709 21.8115 37.751 22.0342 37.751C22.2549 37.751 22.4512 37.709 22.623 37.625C22.7949 37.541 22.9297 37.415 23.0273 37.2471C23.125 37.0791 23.1738 36.8711 23.1738 36.623V33.7344ZM24.5391 33.7344H25.9248C26.2197 33.7344 26.4756 33.7822 26.6924 33.8779C26.9092 33.9736 27.0762 34.1152 27.1934 34.3027C27.3125 34.4883 27.3721 34.7168 27.3721 34.9883C27.3721 35.1895 27.3291 35.3721 27.2432 35.5361C27.1592 35.7002 27.043 35.8379 26.8945 35.9492C26.7461 36.0586 26.5742 36.1338 26.3789 36.1748L26.2529 36.2217H24.7734L24.7676 35.9141H26.0068C26.2295 35.9141 26.415 35.8711 26.5635 35.7852C26.7119 35.6992 26.8232 35.5859 26.8975 35.4453C26.9736 35.3027 27.0117 35.1504 27.0117 34.9883C27.0117 34.7949 26.9697 34.6279 26.8857 34.4873C26.8037 34.3447 26.6816 34.2354 26.5195 34.1592C26.3574 34.083 26.1592 34.0449 25.9248 34.0449H24.8994V38H24.5391V33.7344ZM27.1729 38L26.0684 36.0928L26.4551 36.0898L27.5566 37.9619V38H27.1729ZM32.2412 36.9512C32.2412 36.834 32.2217 36.7295 32.1826 36.6377C32.1436 36.5459 32.0791 36.4639 31.9893 36.3916C31.9014 36.3174 31.7822 36.249 31.6318 36.1865C31.4834 36.1221 31.2979 36.0586 31.0752 35.9961C30.8623 35.9355 30.6699 35.8691 30.498 35.7969C30.3262 35.7246 30.1787 35.6416 30.0557 35.5479C29.9346 35.4541 29.8418 35.3447 29.7773 35.2197C29.7129 35.0928 29.6807 34.9453 29.6807 34.7773C29.6807 34.6133 29.7158 34.4639 29.7861 34.3291C29.8564 34.1943 29.9551 34.0781 30.082 33.9805C30.2109 33.8828 30.3623 33.8076 30.5361 33.7549C30.7119 33.7021 30.9043 33.6758 31.1133 33.6758C31.4121 33.6758 31.6699 33.7324 31.8867 33.8457C32.1055 33.959 32.2744 34.1123 32.3936 34.3057C32.5146 34.4971 32.5752 34.7119 32.5752 34.9502H32.2148C32.2148 34.7646 32.1709 34.5996 32.083 34.4551C31.9971 34.3086 31.8721 34.1943 31.708 34.1123C31.5459 34.0283 31.3477 33.9863 31.1133 33.9863C30.8789 33.9863 30.6816 34.0225 30.5215 34.0947C30.3633 34.165 30.2432 34.2598 30.1611 34.3789C30.0811 34.4961 30.041 34.627 30.041 34.7715C30.041 34.873 30.0605 34.9668 30.0996 35.0527C30.1387 35.1367 30.2021 35.2158 30.29 35.29C30.3799 35.3623 30.498 35.4307 30.6445 35.4951C30.791 35.5576 30.9717 35.6172 31.1865 35.6738C31.4131 35.7363 31.6143 35.8057 31.79 35.8818C31.9658 35.958 32.1143 36.0459 32.2354 36.1455C32.3564 36.2432 32.4482 36.3574 32.5107 36.4883C32.5732 36.6191 32.6045 36.7715 32.6045 36.9453C32.6045 37.1191 32.5674 37.2754 32.4932 37.4141C32.4209 37.5508 32.3184 37.667 32.1855 37.7627C32.0547 37.8584 31.8994 37.9316 31.7197 37.9824C31.542 38.0332 31.3477 38.0586 31.1367 38.0586C30.9473 38.0586 30.7588 38.0342 30.5713 37.9854C30.3838 37.9365 30.2119 37.8613 30.0557 37.7598C29.9014 37.6562 29.7773 37.5234 29.6836 37.3613C29.5918 37.1992 29.5459 37.0059 29.5459 36.7812H29.9033C29.9033 36.9609 29.9395 37.1123 30.0117 37.2354C30.084 37.3584 30.1797 37.458 30.2988 37.5342C30.4199 37.6104 30.5527 37.666 30.6973 37.7012C30.8438 37.7344 30.9902 37.751 31.1367 37.751C31.3613 37.751 31.5557 37.7178 31.7197 37.6514C31.8857 37.585 32.0137 37.4922 32.1035 37.373C32.1953 37.252 32.2412 37.1113 32.2412 36.9512ZM34.8135 33.7344V38H34.4561V33.7344H34.8135ZM36.2754 33.7344V34.0449H32.9971V33.7344H36.2754ZM36.9727 33.7344L38.2646 36.0576L39.5684 33.7344H39.9844L38.4463 36.3916V38H38.0859V36.3916L36.5449 33.7344H36.9727ZM43.0752 37.6924V38H40.8633V37.6924H43.0752ZM40.9688 33.7344V38H40.6084V33.7344H40.9688ZM46.4238 37.6924V38H44.0244V37.6924H46.4238ZM44.1328 33.7344V38H43.7725V33.7344H44.1328ZM46.125 35.6475V35.9551H44.0244V35.6475H46.125ZM46.4092 33.7344V34.0449H44.0244V33.7344H46.4092ZM50.5371 36.7285V33.7344H50.8975V36.7285C50.8975 37.0156 50.8408 37.2578 50.7275 37.4551C50.6162 37.6523 50.4639 37.8027 50.2705 37.9062C50.0771 38.0078 49.8564 38.0586 49.6084 38.0586C49.3545 38.0586 49.1299 38.0137 48.9346 37.9238C48.7412 37.834 48.5908 37.6982 48.4834 37.5166C48.376 37.333 48.3223 37.1016 48.3223 36.8223H48.6826C48.6826 37.0273 48.7188 37.1992 48.791 37.3379C48.8652 37.4746 48.9717 37.5781 49.1104 37.6484C49.249 37.7168 49.415 37.751 49.6084 37.751C49.7822 37.751 49.9385 37.7129 50.0771 37.6367C50.2178 37.5586 50.3291 37.4443 50.4111 37.2939C50.4951 37.1416 50.5371 36.9531 50.5371 36.7285ZM55.1074 35.6387V36.0957C55.1074 36.3945 55.0684 36.665 54.9902 36.9072C54.9141 37.1475 54.8027 37.3535 54.6562 37.5254C54.5117 37.6973 54.3379 37.8291 54.1348 37.9209C53.9316 38.0127 53.7031 38.0586 53.4492 38.0586C53.2012 38.0586 52.9746 38.0127 52.7695 37.9209C52.5664 37.8291 52.3916 37.6973 52.2451 37.5254C52.0986 37.3535 51.9854 37.1475 51.9053 36.9072C51.8252 36.665 51.7852 36.3945 51.7852 36.0957V35.6387C51.7852 35.3398 51.8242 35.0703 51.9023 34.8301C51.9824 34.5879 52.0957 34.3809 52.2422 34.209C52.3887 34.0371 52.5635 33.9053 52.7666 33.8135C52.9697 33.7217 53.1953 33.6758 53.4434 33.6758C53.6973 33.6758 53.9258 33.7217 54.1289 33.8135C54.332 33.9053 54.5068 34.0371 54.6533 34.209C54.7998 34.3809 54.9121 34.5879 54.9902 34.8301C55.0684 35.0703 55.1074 35.3398 55.1074 35.6387ZM54.75 36.0957V35.6328C54.75 35.3809 54.7207 35.1543 54.6621 34.9531C54.6055 34.752 54.5205 34.5801 54.4072 34.4375C54.2959 34.2949 54.1592 34.1855 53.9971 34.1094C53.835 34.0332 53.6504 33.9951 53.4434 33.9951C53.2422 33.9951 53.0615 34.0332 52.9014 34.1094C52.7412 34.1855 52.6045 34.2949 52.4912 34.4375C52.3799 34.5801 52.2939 34.752 52.2334 34.9531C52.1748 35.1543 52.1455 35.3809 52.1455 35.6328V36.0957C52.1455 36.3496 52.1748 36.5781 52.2334 36.7812C52.2939 36.9824 52.3809 37.1553 52.4941 37.2998C52.6074 37.4424 52.7441 37.5518 52.9043 37.6279C53.0664 37.7041 53.248 37.7422 53.4492 37.7422C53.6582 37.7422 53.8428 37.7041 54.0029 37.6279C54.1631 37.5518 54.2988 37.4424 54.4102 37.2998C54.5215 37.1553 54.6055 36.9824 54.6621 36.7812C54.7207 36.5781 54.75 36.3496 54.75 36.0957ZM58.5938 33.7344H58.9541V36.623C58.9541 36.9434 58.8867 37.21 58.752 37.4229C58.6172 37.6357 58.4355 37.7949 58.207 37.9004C57.9805 38.0059 57.7295 38.0586 57.4541 38.0586C57.1709 38.0586 56.916 38.0059 56.6895 37.9004C56.4629 37.7949 56.2832 37.6357 56.1504 37.4229C56.0195 37.21 55.9541 36.9434 55.9541 36.623V33.7344H56.3115V36.623C56.3115 36.8711 56.3604 37.0791 56.458 37.2471C56.5557 37.415 56.6904 37.541 56.8623 37.625C57.0342 37.709 57.2314 37.751 57.4541 37.751C57.6748 37.751 57.8711 37.709 58.043 37.625C58.2148 37.541 58.3496 37.415 58.4473 37.2471C58.5449 37.0791 58.5938 36.8711 58.5938 36.623V33.7344ZM59.959 33.7344H61.3447C61.6396 33.7344 61.8955 33.7822 62.1123 33.8779C62.3291 33.9736 62.4961 34.1152 62.6133 34.3027C62.7324 34.4883 62.792 34.7168 62.792 34.9883C62.792 35.1895 62.749 35.3721 62.6631 35.5361C62.5791 35.7002 62.4629 35.8379 62.3145 35.9492C62.166 36.0586 61.9941 36.1338 61.7988 36.1748L61.6729 36.2217H60.1934L60.1875 35.9141H61.4268C61.6494 35.9141 61.835 35.8711 61.9834 35.7852C62.1318 35.6992 62.2432 35.5859 62.3174 35.4453C62.3936 35.3027 62.4316 35.1504 62.4316 34.9883C62.4316 34.7949 62.3896 34.6279 62.3057 34.4873C62.2236 34.3447 62.1016 34.2354 61.9395 34.1592C61.7773 34.083 61.5791 34.0449 61.3447 34.0449H60.3193V38H59.959V33.7344ZM62.5928 38L61.4883 36.0928L61.875 36.0898L62.9766 37.9619V38H62.5928ZM66.958 33.7344V38H66.5947L64.1426 34.3555V38H63.7822V33.7344H64.1426L66.6006 37.3789V33.7344H66.958ZM70.6992 37.6924V38H68.2998V37.6924H70.6992ZM68.4082 33.7344V38H68.0479V33.7344H68.4082ZM70.4004 35.6475V35.9551H68.2998V35.6475H70.4004ZM70.6846 33.7344V34.0449H68.2998V33.7344H70.6846ZM71.4199 33.7344L72.7119 36.0576L74.0156 33.7344H74.4316L72.8936 36.3916V38H72.5332V36.3916L70.9922 33.7344H71.4199Z" fill="#68262A"/>
</svg>
