<svg width="35" height="35" viewBox="0 0 35 35" fill="none" xmlns="http://www.w3.org/2000/svg">
<path d="M17.5 35C27.165 35 35 27.165 35 17.5C35 7.83502 27.165 0 17.5 0C7.83502 0 0 7.83502 0 17.5C0 27.165 7.83502 35 17.5 35Z" fill="white"/>
<path d="M30 0.5C32.4853 0.5 34.5 2.51472 34.5 5C34.5 7.48528 32.4853 9.5 30 9.5C27.5147 9.5 25.5 7.48528 25.5 5C25.5 2.51472 27.5147 0.5 30 0.5Z" fill="#68262A" stroke="white"/>
<mask id="path-3-inside-1_2965_1611" fill="white">
<path d="M25 22.7619V23.5714H10V22.7619L11.6667 21.1429V16.2857C11.6667 13.7762 13.3583 11.5662 15.8333 10.8538V10.619C15.8333 10.1896 16.0089 9.77784 16.3215 9.47421C16.634 9.17058 17.058 9 17.5 9C17.942 9 18.366 9.17058 18.6785 9.47421C18.9911 9.77784 19.1667 10.1896 19.1667 10.619V10.8538C21.6417 11.5662 23.3333 13.7762 23.3333 16.2857V21.1429L25 22.7619ZM19.1667 24.381C19.1667 24.8104 18.9911 25.2222 18.6785 25.5258C18.366 25.8294 17.942 26 17.5 26C17.058 26 16.634 25.8294 16.3215 25.5258C16.0089 25.2222 15.8333 24.8104 15.8333 24.381"/>
</mask>
<path d="M25 22.7619H26.5V22.1278L26.0452 21.686L25 22.7619ZM25 23.5714V25.0714H26.5V23.5714H25ZM10 23.5714H8.5V25.0714H10V23.5714ZM10 22.7619L8.95482 21.686L8.5 22.1278V22.7619H10ZM11.6667 21.1429L12.7118 22.2188L13.1667 21.7769V21.1429H11.6667ZM15.8333 10.8538L16.2482 12.2953L17.3333 11.983V10.8538H15.8333ZM17.5 9V7.5V9ZM19.1667 10.8538H17.6667V11.983L18.7518 12.2953L19.1667 10.8538ZM23.3333 21.1429H21.8333V21.7769L22.2882 22.2188L23.3333 21.1429ZM25 22.7619H23.5V23.5714H25H26.5V22.7619H25ZM25 23.5714V22.0714H10V23.5714V25.0714H25V23.5714ZM10 23.5714H11.5V22.7619H10H8.5V23.5714H10ZM10 22.7619L11.0452 23.8378L12.7118 22.2188L11.6667 21.1429L10.6215 20.0669L8.95482 21.686L10 22.7619ZM11.6667 21.1429H13.1667V16.2857H11.6667H10.1667V21.1429H11.6667ZM11.6667 16.2857H13.1667C13.1667 14.4667 14.3946 12.8288 16.2482 12.2953L15.8333 10.8538L15.4184 9.41233C12.3221 10.3035 10.1667 13.0857 10.1667 16.2857H11.6667ZM15.8333 10.8538H17.3333V10.619H15.8333H14.3333V10.8538H15.8333ZM15.8333 10.619H17.3333C17.3333 10.6017 17.34 10.576 17.3667 10.5501L16.3215 9.47421L15.2763 8.39829C14.6778 8.97965 14.3333 9.77756 14.3333 10.619H15.8333ZM16.3215 9.47421L17.3667 10.5501C17.3948 10.5228 17.442 10.5 17.5 10.5V9V7.5C16.674 7.5 15.8733 7.81836 15.2763 8.39829L16.3215 9.47421ZM17.5 9V10.5C17.558 10.5 17.6052 10.5228 17.6333 10.5501L18.6785 9.47421L19.7237 8.39829C19.1267 7.81836 18.326 7.5 17.5 7.5V9ZM18.6785 9.47421L17.6333 10.5501C17.66 10.576 17.6667 10.6017 17.6667 10.619H19.1667H20.6667C20.6667 9.77756 20.3221 8.97965 19.7237 8.39829L18.6785 9.47421ZM19.1667 10.619H17.6667V10.8538H19.1667H20.6667V10.619H19.1667ZM19.1667 10.8538L18.7518 12.2953C20.6054 12.8288 21.8333 14.4667 21.8333 16.2857H23.3333H24.8333C24.8333 13.0857 22.6779 10.3035 19.5816 9.41233L19.1667 10.8538ZM23.3333 16.2857H21.8333V21.1429H23.3333H24.8333V16.2857H23.3333ZM23.3333 21.1429L22.2882 22.2188L23.9548 23.8378L25 22.7619L26.0452 21.686L24.3785 20.0669L23.3333 21.1429ZM19.1667 24.381H17.6667C17.6667 24.3983 17.66 24.424 17.6333 24.4499L18.6785 25.5258L19.7237 26.6017C20.3221 26.0203 20.6667 25.2224 20.6667 24.381H19.1667ZM18.6785 25.5258L17.6333 24.4499C17.6052 24.4772 17.558 24.5 17.5 24.5V26V27.5C18.326 27.5 19.1267 27.1816 19.7237 26.6017L18.6785 25.5258ZM17.5 26V24.5C17.442 24.5 17.3948 24.4772 17.3667 24.4499L16.3215 25.5258L15.2763 26.6017C15.8733 27.1816 16.674 27.5 17.5 27.5V26ZM16.3215 25.5258L17.3667 24.4499C17.34 24.424 17.3333 24.3983 17.3333 24.381H15.8333H14.3333C14.3333 25.2224 14.6779 26.0203 15.2763 26.6017L16.3215 25.5258Z" fill="black" mask="url(#path-3-inside-1_2965_1611)"/>
</svg>
