<svg width="293" height="296" viewBox="0 0 293 296" fill="none" xmlns="http://www.w3.org/2000/svg">
<path d="M42.8763 275.451C100.049 302.697 192.739 302.706 249.912 275.451C307.084 248.196 307.076 204.025 249.912 176.779C192.748 149.532 100.049 149.532 42.8763 176.779C-14.2962 204.025 -14.2879 248.205 42.8763 275.451Z" fill="#68262A"/>
<path d="M71.7429 247.528L157.322 198.11C157.51 198.044 157.674 197.921 157.789 197.758C157.905 197.595 157.967 197.4 157.967 197.2C157.967 197 157.905 196.805 157.789 196.642C157.674 196.479 157.51 196.356 157.322 196.29L149.41 191.738C148.92 191.491 148.379 191.363 147.831 191.363C147.282 191.363 146.741 191.491 146.251 191.738L60.645 241.109C60.4564 241.176 60.2931 241.299 60.1776 241.462C60.062 241.625 60 241.82 60 242.02C60 242.22 60.062 242.415 60.1776 242.578C60.2931 242.741 60.4564 242.864 60.645 242.93L68.5838 247.482C69.0703 247.736 69.6094 247.872 70.1579 247.88C70.7065 247.888 71.2493 247.767 71.7429 247.528Z" fill="#E0E0E0"/>
<path d="M154.972 7.31475L77.8054 51.8704C76.6582 52.619 75.7036 53.6273 75.0187 54.8136C74.3338 55.9999 73.938 57.3308 73.8633 58.6985V241.755C73.8633 244.268 75.6295 245.288 77.8054 244.032L154.972 199.476C156.121 198.729 157.076 197.721 157.762 196.534C158.447 195.348 158.842 194.016 158.914 192.648V9.59079C158.914 7.07804 157.157 6.05838 154.972 7.31475Z" fill="#455A64"/>
<path d="M77.8057 51.8714L154.972 7.31572C156.921 6.18681 158.532 6.88783 158.86 8.84522C158.678 7.61456 158.237 6.43639 157.567 5.3882C156.897 4.34 156.013 3.44554 154.972 2.76365L151.768 0.942824C150.546 0.323015 149.196 0 147.826 0C146.456 0 145.105 0.323015 143.884 0.942824L66.7078 45.4621C65.5454 46.1909 64.5869 47.2027 63.9219 48.4027L75.0198 54.7756C75.6846 53.5851 76.6438 52.5851 77.8057 51.8714Z" fill="#37474F"/>
<path d="M62.7461 235.347C62.8208 236.714 63.2167 238.045 63.9015 239.232C64.5864 240.418 65.5411 241.426 66.6882 242.175L69.9019 243.996C71.0143 244.552 72.2315 244.867 73.4741 244.921C74.7167 244.974 75.9565 244.764 77.1124 244.305C75.2916 245.015 73.844 243.968 73.844 241.72V58.6991C73.8896 57.3255 74.2878 55.9868 75.0003 54.8116L63.9023 48.4387C63.1998 49.605 62.8022 50.9294 62.7461 52.2898V235.347Z" fill="#263238"/>
<path d="M79.9257 76.2621L152.877 34.1555C154.188 33.4089 155.244 34.0189 155.244 35.5211V171.009C155.201 171.83 154.963 172.629 154.552 173.341C154.141 174.053 153.567 174.658 152.877 175.106L79.953 217.212C78.642 217.968 77.5859 217.358 77.5859 215.847V80.359C77.6274 79.5405 77.8607 78.7432 78.2672 78.0315C78.6736 77.3198 79.2418 76.7137 79.9257 76.2621Z" fill="white"/>
<path d="M116.388 36.5313C115.985 36.7956 115.65 37.1508 115.41 37.5683C115.169 37.9857 115.03 38.4538 115.004 38.9348C115.004 39.8452 115.623 40.182 116.388 39.7359C116.792 39.4732 117.128 39.1184 117.369 38.7006C117.609 38.2828 117.747 37.8139 117.772 37.3324C117.772 36.4493 117.153 36.0943 116.388 36.5313Z" fill="#37474F"/>
<path d="M116.388 202.636C114.797 203.677 113.473 205.079 112.524 206.727C111.575 208.375 111.027 210.223 110.926 212.122C110.926 215.609 113.375 217.03 116.388 215.282C117.979 214.24 119.303 212.838 120.252 211.19C121.201 209.542 121.749 207.694 121.851 205.795C121.869 202.308 119.411 200.888 116.388 202.636Z" fill="#37474F"/>
<path d="M103.288 50.6251C102.488 51.1563 101.824 51.868 101.349 52.703C100.875 53.538 100.603 54.4729 100.557 55.4321C100.557 57.1983 101.795 57.9175 103.288 57.0344C104.096 56.5084 104.769 55.7988 105.252 54.9635C105.734 54.1282 106.013 53.1907 106.065 52.2275C106.065 50.4613 104.826 49.742 103.288 50.6251Z" fill="#37474F"/>
<path d="M110.088 50.0218C110.088 51.2053 110.998 51.6514 112.064 51.0232L130.272 40.4897C130.836 40.1375 131.309 39.657 131.652 39.0875C131.995 38.518 132.199 37.8755 132.247 37.2122C132.247 36.0378 131.337 35.5917 130.272 36.2199L112.064 46.7534C111.501 47.1047 111.028 47.5837 110.685 48.1516C110.342 48.7194 110.137 49.3601 110.088 50.0218Z" fill="#37474F"/>
<path d="M68.8998 82.1266C69.5459 82.5474 70.0837 83.1146 70.4696 83.7821C70.8556 84.4496 71.0788 85.1987 71.1212 85.9686C71.1212 87.3888 70.1289 87.9624 68.8998 87.2522C68.2559 86.8299 67.7203 86.2621 67.336 85.5948C66.9517 84.9275 66.7296 84.1792 66.6875 83.4103C66.6875 81.9992 67.6798 81.4256 68.8998 82.1266Z" fill="#37474F"/>
<path d="M68.8998 99.2221C69.5459 99.6429 70.0837 100.21 70.4696 100.878C70.8556 101.545 71.0788 102.294 71.1212 103.064C71.1212 104.475 70.1289 105.049 68.8998 104.348C68.2559 103.925 67.7203 103.358 67.336 102.69C66.9517 102.023 66.7296 101.275 66.6875 100.506C66.6875 99.0855 67.6798 98.512 68.8998 99.2221Z" fill="#37474F"/>
<path d="M68.2097 82.4696C68.8558 82.8905 69.3936 83.4576 69.7795 84.1251C70.1655 84.7926 70.3887 85.5417 70.4311 86.3116C70.4311 87.7227 69.4388 88.2963 68.2097 87.5952C67.5636 87.1744 67.0258 86.6073 66.6398 85.9397C66.2539 85.2722 66.0307 84.5232 65.9883 83.7533C65.9974 82.3331 66.9897 81.7868 68.2097 82.4696Z" fill="#455A64"/>
<path d="M68.2097 99.5595C68.857 99.9812 69.3955 100.55 69.7815 101.219C70.1676 101.888 70.3901 102.639 70.4311 103.411C70.4311 104.822 69.4388 105.395 68.2097 104.685C67.5621 104.266 67.0231 103.699 66.637 103.031C66.2508 102.363 66.0285 101.614 65.9883 100.843C65.9974 99.432 66.9897 98.8585 68.2097 99.5595Z" fill="#455A64"/>
<path d="M170.012 39.809C170.012 38.2977 168.956 37.6877 167.645 38.4433L158.914 43.4779L94.7206 80.55C94.0311 80.998 93.4572 81.6026 93.0459 82.3146C92.6345 83.0266 92.3973 83.8257 92.3535 84.6468V220.098C92.3535 221.61 93.4096 222.22 94.7206 221.464L158.941 184.383L167.645 179.357C168.334 178.909 168.908 178.305 169.319 177.593C169.731 176.881 169.968 176.081 170.012 175.26V39.809Z" fill="white"/>
<path d="M170.923 39.8093C170.98 39.3528 170.901 38.8895 170.697 38.4773C170.492 38.0652 170.171 37.7226 169.772 37.4923C169.374 37.262 168.916 37.1543 168.457 37.1827C167.998 37.211 167.557 37.3741 167.19 37.6517L158.86 42.4678L94.2659 79.7947C93.4343 80.3197 92.7428 81.039 92.2511 81.8907C91.7595 82.7424 91.4823 83.701 91.4437 84.6836V220.099C91.4071 220.553 91.4945 221.009 91.6965 221.418C91.8985 221.827 92.2075 222.173 92.5908 222.42C92.9168 222.61 93.288 222.707 93.6651 222.702C94.1988 222.686 94.7192 222.532 95.1763 222.256L159.816 184.929L168.128 180.131C168.955 179.601 169.642 178.881 170.134 178.03C170.625 177.18 170.905 176.224 170.95 175.243L170.923 39.8093ZM158.878 183.373L158.131 183.81L94.3024 220.663C94.1951 220.746 94.0708 220.803 93.9385 220.831C93.8062 220.86 93.6693 220.858 93.5376 220.827C93.4193 220.754 93.3009 220.499 93.3009 220.08V84.6472C93.348 83.9862 93.5446 83.3445 93.8758 82.7705C94.207 82.1964 94.6641 81.705 95.2128 81.3333L158.978 44.4616L168.082 39.1903C168.19 39.1078 168.314 39.0504 168.446 39.022C168.578 38.9937 168.715 38.9952 168.847 39.0264C168.965 39.0992 169.084 39.3541 169.084 39.7729V175.261C169.037 175.922 168.84 176.564 168.509 177.138C168.178 177.712 167.721 178.203 167.172 178.575L158.86 183.373H158.878Z" fill="#71221C"/>
<path d="M131.183 71.2807C139.377 66.5647 145.977 70.3703 145.977 79.8295C145.977 89.2887 139.349 100.769 131.183 105.449C123.016 110.128 116.389 106.359 116.389 96.9088C116.389 87.4587 123.016 76.0057 131.183 71.2807Z" fill="#71221C"/>
<path d="M131.183 78.7096C133.832 77.1801 135.981 78.4183 135.981 81.4408C135.891 83.106 135.409 84.7264 134.576 86.1706C133.742 87.6148 132.58 88.8421 131.183 89.7529C128.533 91.2824 126.385 90.0443 126.385 87.0217C126.475 85.3566 126.956 83.7361 127.79 82.2919C128.623 80.8477 129.786 79.6204 131.183 78.7096Z" fill="#71221C"/>
<path d="M140.535 95.0253C140.535 89.9998 137.011 87.9605 132.651 90.4733L129.919 92.0483C125.568 94.561 122.035 100.679 122.035 105.704V107.061C124.557 107.889 127.725 107.443 131.139 105.45C134.921 103.117 138.12 99.9496 140.489 96.1907L140.535 95.0253Z" fill="#71221C"/>
<path opacity="0.7" d="M131.183 78.7096C133.832 77.1801 135.981 78.4183 135.981 81.4408C135.891 83.106 135.409 84.7264 134.576 86.1706C133.742 87.6148 132.58 88.8421 131.183 89.7529C128.533 91.2824 126.385 90.0443 126.385 87.0217C126.475 85.3566 126.956 83.7361 127.79 82.2919C128.623 80.8477 129.786 79.6204 131.183 78.7096Z" fill="white"/>
<path opacity="0.7" d="M140.535 95.0253C140.535 89.9998 137.011 87.9605 132.651 90.4733L129.919 92.0483C125.568 94.561 122.035 100.679 122.035 105.704V107.061C124.557 107.889 127.725 107.443 131.139 105.45C134.921 103.117 138.12 99.9496 140.489 96.1907L140.535 95.0253Z" fill="white"/>
<path d="M102.559 126.254L121.596 115.265C122.507 114.764 123.171 115.165 123.171 116.175V116.804C123.142 117.351 122.985 117.883 122.711 118.358C122.437 118.832 122.055 119.236 121.596 119.535L102.559 130.523C101.694 131.024 100.984 130.614 100.984 129.613V128.985C101.014 128.438 101.172 127.906 101.446 127.431C101.719 126.957 102.101 126.553 102.559 126.254Z" fill="#71221C"/>
<path opacity="0.1" d="M102.559 126.254L121.596 115.265C122.507 114.764 123.171 115.165 123.171 116.175V116.804C123.142 117.351 122.985 117.883 122.711 118.358C122.437 118.832 122.055 119.236 121.596 119.535L102.559 130.523C101.694 131.024 100.984 130.614 100.984 129.613V128.985C101.014 128.438 101.172 127.906 101.446 127.431C101.719 126.957 102.101 126.553 102.559 126.254Z" fill="black"/>
<path d="M101.776 139.516L159.369 106.268C159.797 106.013 160.152 106.213 160.152 106.723V113.442C160.136 113.714 160.057 113.98 159.921 114.217C159.785 114.454 159.596 114.656 159.369 114.807L101.776 148.056C101.339 148.311 100.984 148.101 100.984 147.601V140.882C101 140.608 101.08 140.342 101.217 140.104C101.355 139.867 101.547 139.666 101.776 139.516Z" fill="#71221C"/>
<path opacity="0.2" d="M101.776 139.516L159.369 106.268C159.797 106.013 160.152 106.213 160.152 106.723V113.442C160.136 113.714 160.057 113.98 159.921 114.217C159.785 114.454 159.596 114.656 159.369 114.807L101.776 148.056C101.339 148.311 100.984 148.101 100.984 147.601V140.882C101 140.608 101.08 140.342 101.217 140.104C101.355 139.867 101.547 139.666 101.776 139.516Z" fill="white"/>
<path d="M102.559 156.141L121.596 145.152C122.507 144.651 123.171 145.061 123.171 146.063V146.691C123.143 147.238 122.986 147.771 122.712 148.246C122.438 148.72 122.056 149.124 121.596 149.422L102.559 160.411C101.694 160.921 100.984 160.511 100.984 159.5V158.872C101.015 158.325 101.174 157.794 101.447 157.319C101.721 156.845 102.102 156.441 102.559 156.141Z" fill="#71221C"/>
<path opacity="0.1" d="M102.559 156.141L121.596 145.152C122.507 144.651 123.171 145.061 123.171 146.063V146.691C123.143 147.238 122.986 147.771 122.712 148.246C122.438 148.72 122.056 149.124 121.596 149.422L102.559 160.411C101.694 160.921 100.984 160.511 100.984 159.5V158.872C101.015 158.325 101.174 157.794 101.447 157.319C101.721 156.845 102.102 156.441 102.559 156.141Z" fill="black"/>
<path d="M101.776 169.406L159.369 136.157C159.797 135.903 160.152 136.112 160.152 136.613V143.332C160.136 143.604 160.057 143.869 159.921 144.106C159.785 144.343 159.596 144.546 159.369 144.697L101.776 177.945C101.339 178.2 100.984 178 100.984 177.49V170.771C101 170.498 101.08 170.231 101.217 169.994C101.355 169.757 101.547 169.555 101.776 169.406Z" fill="#71221C"/>
<path opacity="0.2" d="M101.776 169.406L159.369 136.157C159.797 135.903 160.152 136.112 160.152 136.613V143.332C160.136 143.604 160.057 143.869 159.921 144.106C159.785 144.343 159.596 144.546 159.369 144.697L101.776 177.945C101.339 178.2 100.984 178 100.984 177.49V170.771C101 170.498 101.08 170.231 101.217 169.994C101.355 169.757 101.547 169.555 101.776 169.406Z" fill="white"/>
<path d="M124.745 173.222L147.505 160.103C148.416 159.593 149.089 160.002 149.089 161.013V168.041C149.06 168.589 148.9 169.123 148.625 169.597C148.35 170.072 147.966 170.475 147.505 170.773L124.745 183.901C123.835 184.402 123.17 183.992 123.17 182.99V175.953C123.202 175.406 123.36 174.875 123.634 174.401C123.907 173.927 124.288 173.523 124.745 173.222Z" fill="#71221C"/>
<path opacity="0.1" d="M124.745 173.222L147.505 160.103C148.416 159.593 149.089 160.002 149.089 161.013V168.041C149.06 168.589 148.9 169.123 148.625 169.597C148.35 170.072 147.966 170.475 147.505 170.773L124.745 183.901C123.835 184.402 123.17 183.992 123.17 182.99V175.953C123.202 175.406 123.36 174.875 123.634 174.401C123.907 173.927 124.288 173.523 124.745 173.222Z" fill="black"/>
<path d="M178.641 143.561C178.641 143.561 167.462 128.138 166.806 126.263C166.287 124.879 166.806 122.821 166.97 121.865C167.134 120.909 167.279 118.779 167.443 118.224C167.716 117.186 166.378 117.395 165.623 118.342C164.867 119.289 164.612 121.183 164.22 121.492C163.829 121.802 160.852 117.459 159.295 115.456C157.738 113.453 156.764 112.233 155.808 112.98C155.125 113.517 155.635 114.682 156.764 116.394C157.424 117.315 158.031 118.273 158.585 119.262C158.758 119.635 157.829 119.662 157.329 120.436C156.937 121.037 157.329 122.011 156.782 122.475C156.446 122.731 156.216 123.102 156.135 123.516C156.055 123.931 156.13 124.361 156.345 124.724C157.359 126.316 158.666 127.7 160.196 128.803C161.872 129.959 162.545 130.369 163.538 131.944C164.53 133.519 173.434 149.606 174.035 150.571C174.636 151.536 175.792 153.502 177.549 153.557C179.306 153.612 193.691 141.23 194.428 140.611C196.795 138.635 197.551 138.353 197.951 140.128C198.09 140.759 198.193 141.398 198.261 142.04C198.543 144.298 200.082 152.364 200.082 152.364C200.082 152.364 207.365 155.888 213.346 154.185C219.328 152.483 221.349 149.943 221.349 149.943L218.354 145.063C219.164 143.051 222.906 134.893 224.117 129.185L205.362 126.153C204.98 126.071 204.361 125.917 203.541 125.707C202.513 125.434 199.9 124.533 197.924 126.263C191.478 131.88 178.66 143.561 178.66 143.561" fill="#FFA8A7"/>
<path d="M215.822 238.189L212.463 242.86C213.99 243.573 215.658 243.931 217.343 243.907C220.356 244.016 221.185 242.996 221.294 242.796C221.804 241.704 221.012 239.737 220.793 238.044L215.822 238.189Z" fill="#37474F"/>
<path d="M212.655 240.62C212.655 240.62 208.576 240.356 205.763 240.01C202.95 239.664 200.72 241.03 201.375 242.186C202.031 243.342 203.587 244.307 206.009 245.118C208.076 245.819 210.561 246.319 212.71 246.938C214.858 247.558 216.351 248.368 217.599 247.931C218.992 247.448 219.592 246.893 219.474 245.873C219.17 244.423 218.793 242.989 218.345 241.576L212.655 240.62Z" fill="#37474F"/>
<path d="M221.294 233.499C221.294 233.499 220.785 237.742 220.748 238.652C220.712 239.563 216.606 239.854 215.823 238.188L215.695 232.999L221.294 233.499Z" fill="#F28F8F"/>
<path d="M217.16 236.102L218.626 242.548C218.626 242.548 218.763 243.331 215.412 243.831C212.062 244.332 206.8 242.074 205.898 241.619C204.997 241.164 204.897 240.244 208.193 240.427C211.488 240.609 212.654 240.618 212.654 240.618L211.579 237.768L217.16 236.102Z" fill="#FFA8A7"/>
<path d="M224.062 129.127L226.384 128.481C226.384 128.481 231.236 143.84 231.773 145.324C232.311 146.808 232.921 148.374 231.874 150.203C230.626 152.379 224.062 161.128 224.062 161.128L219.893 157.05L224.627 148.383L220.439 139.916L224.062 129.127Z" fill="#F28F8F"/>
<path d="M200.218 109.182C199.674 108.16 199.397 107.017 199.415 105.86C199.432 104.702 199.743 103.568 200.318 102.563C202.63 98.2753 207.783 96.1904 213.92 96.9825C216.76 97.3558 220.11 99.7137 221.94 103.237C223.961 107.143 224.153 115.009 224.672 117.986L200.218 109.182Z" fill="#37474F"/>
<path d="M200.056 110.868C200.056 110.868 198.599 113.645 198.854 113.9C199.232 114.12 199.644 114.274 200.074 114.355L200.056 110.868Z" fill="#FFA8A7"/>
<path d="M204.481 102.092C202.897 103.121 200.165 105.014 200.047 111.251C199.92 117.624 200.83 119.727 201.777 120.464C202.414 120.965 206.156 120.71 207.758 120.337C209.361 119.963 213.976 117.678 215.643 114.21C217.6 110.131 217.199 104.195 214.295 102.374C212.817 101.5 211.141 101.016 209.424 100.966C207.708 100.917 206.007 101.304 204.481 102.092Z" fill="#FFA8A7"/>
<path d="M221.296 149.906C224.1 154.276 226.758 158.1 227.341 163.035C228.542 173.404 224.609 185.258 223.763 192.933C225.355 195.116 226.273 197.717 226.403 200.416C226.403 203.594 221.296 233.501 221.296 233.501C221.296 233.501 217.581 234.63 215.697 233L212.191 177.984L214.012 171.283L221.296 149.906Z" fill="#71221C"/>
<path opacity="0.2" d="M221.296 149.906C224.1 154.276 226.758 158.1 227.341 163.035C228.542 173.404 224.609 185.258 223.763 192.933C225.355 195.116 226.273 197.717 226.403 200.416C226.403 203.594 221.296 233.501 221.296 233.501C221.296 233.501 217.581 234.63 215.697 233L212.191 177.984L214.012 171.283L221.296 149.906Z" fill="black"/>
<path d="M212.191 177.98L214.012 171.279C217.499 170.362 220.861 169.026 224.027 167.301C224.027 167.301 222.133 170.751 216.689 172.645L213.876 181.248L213.639 200.959L212.191 177.98Z" fill="#71221C"/>
<path opacity="0.3" d="M212.191 177.98L214.012 171.279C217.499 170.362 220.861 169.026 224.027 167.301C224.027 167.301 222.133 170.751 216.689 172.645L213.876 181.248L213.639 200.959L212.191 177.98Z" fill="black"/>
<path d="M221.294 149.906C222.796 152.365 226.383 156.552 225.619 160.586C224.708 165.465 222.068 168.898 214.038 171.283L206.5 198.595C206.5 198.595 210.424 202.237 211.626 205.76C212.827 209.284 217.161 236.123 217.161 236.123C217.161 236.123 215.813 238.317 211.58 237.789C211.58 237.789 196.822 204.103 195.784 201.909C194.525 199.687 194.083 197.094 194.537 194.581C195.001 191.048 200 152.383 200 152.383L221.294 149.906Z" fill="#71221C"/>
<path opacity="0.2" d="M221.294 149.906C222.796 152.365 226.383 156.552 225.619 160.586C224.708 165.465 222.068 168.898 214.038 171.283L206.5 198.595C206.5 198.595 210.424 202.237 211.626 205.76C212.827 209.284 217.161 236.123 217.161 236.123C217.161 236.123 215.813 238.317 211.58 237.789C211.58 237.789 196.822 204.103 195.784 201.909C194.525 199.687 194.083 197.094 194.537 194.581C195.001 191.048 200 152.383 200 152.383L221.294 149.906Z" fill="black"/>
<path d="M224.062 129.13L205.307 126.098C204.925 126.016 204.306 125.861 203.486 125.652C203.486 125.652 202.685 137.414 197.869 140.109C197.987 140.674 198.088 141.302 198.179 142.021C198.461 144.279 200 152.345 200 152.345C200 152.345 207.283 155.869 213.264 154.166C219.246 152.464 221.267 149.923 221.267 149.923L218.271 145.044C219.109 143.013 222.878 134.856 224.062 129.13Z" fill="#71221C"/>
<path opacity="0.7" d="M224.062 129.13L205.307 126.098C204.925 126.016 204.306 125.861 203.486 125.652C203.486 125.652 202.685 137.414 197.869 140.109C197.987 140.674 198.088 141.302 198.179 142.021C198.461 144.279 200 152.345 200 152.345C200 152.345 207.283 155.869 213.264 154.166C219.246 152.464 221.267 149.923 221.267 149.923L218.271 145.044C219.109 143.013 222.878 134.856 224.062 129.13Z" fill="white"/>
<path d="M219.119 143.102C216.628 144.597 214.018 145.885 211.316 146.953C213.769 146.904 216.17 146.24 218.299 145.023L219.119 143.102Z" fill="#71221C"/>
<path d="M204.016 102.401C204.016 102.401 203.105 108.318 205.254 111.796C205.254 111.796 206.055 109.438 208.049 109.884C210.043 110.33 210.152 112.961 208.75 114.436C208.394 114.85 207.928 115.155 207.406 115.316C206.884 115.477 206.328 115.488 205.8 115.347C205.8 115.347 205.482 119.626 205.309 123.213C205.136 126.8 204.189 134.62 208.222 137.779C212.255 140.938 222.379 142.049 227.122 135.421C229.762 131.734 226.257 125.216 224.628 117.905C223.125 111.186 222.279 101.226 215.15 99.6238C208.022 98.0215 204.016 102.401 204.016 102.401Z" fill="#37474F"/>
</svg>
