<svg width="364" height="308" viewBox="0 0 364 308" fill="none" xmlns="http://www.w3.org/2000/svg">
<path d="M82.8262 276.412C137.265 302.356 225.524 302.364 279.963 276.412C334.402 250.461 334.394 208.401 279.963 182.458C225.532 156.514 137.265 156.514 82.8262 182.458C28.3873 208.401 28.3952 250.469 82.8262 276.412Z" fill="#68262A"/>
<path d="M320.295 279.346L321.787 308C321.787 308 258.661 247.918 250.797 230.339C242.932 212.76 257.736 169.274 257.736 169.274L290.582 187.315L320.295 279.346Z" fill="#ED9DA0"/>
<path d="M223.502 157.246L213.787 158.172C213.787 158.172 208.699 169.274 224.427 170.199L223.502 157.246Z" fill="#ED9DA0"/>
<path d="M223.502 174.362L213.787 175.288C213.787 175.288 208.699 186.391 224.427 187.316L223.502 174.362Z" fill="#ED9DA0"/>
<path d="M223.502 192.867L213.787 193.792C213.787 193.792 208.699 204.895 224.427 205.819L223.502 192.867Z" fill="#ED9DA0"/>
<path d="M226.278 211.371L216.563 212.296C216.563 212.296 211.474 223.399 227.203 224.324L226.278 211.371Z" fill="#ED9DA0"/>
<path d="M363.872 294.27L361.011 291.006L312.092 235.196L310.242 197.262L290.812 164.878L285.261 151C285.261 151 272.308 152.388 282.948 178.757L287.342 192.866C283.381 201.399 281.329 210.693 281.329 220.101V252.433C281.329 260.047 317.609 301.516 321.832 307.851L363.872 294.27Z" fill="#ED9DA0"/>
<path opacity="0.2" d="M286.785 167.623L290.648 165.724L290.516 165.457L286.948 167.211L281.56 153.085L281.281 153.192L286.785 167.623Z" fill="black"/>
<path opacity="0.2" d="M213.838 158.03L213.734 158.31L219.456 160.418L219.56 160.138L213.838 158.03Z" fill="black"/>
<path opacity="0.2" d="M213.838 175.342L213.734 175.622L219.456 177.73L219.56 177.45L213.838 175.342Z" fill="black"/>
<path opacity="0.2" d="M213.838 193.848L213.734 194.128L219.456 196.236L219.56 195.956L213.838 193.848Z" fill="black"/>
<path opacity="0.2" d="M216.836 212.359L216.707 212.628L219.493 213.965L219.622 213.696L216.836 212.359Z" fill="black"/>
<path d="M43.5779 279.346L42.0856 308C42.0856 308 105.212 247.918 113.076 230.339C120.941 212.76 106.137 169.274 106.137 169.274L73.2915 187.315L43.5779 279.346Z" fill="#ED9DA0"/>
<path d="M140.371 157.246L150.086 158.172C150.086 158.172 155.174 169.274 139.446 170.199L140.371 157.246Z" fill="#ED9DA0"/>
<path d="M140.371 174.362L150.086 175.288C150.086 175.288 155.174 186.391 139.446 187.316L140.371 174.362Z" fill="#ED9DA0"/>
<path d="M140.371 192.867L150.086 193.792C150.086 193.792 155.174 204.895 139.446 205.819L140.371 192.867Z" fill="#ED9DA0"/>
<path d="M137.595 211.371L147.31 212.296C147.31 212.296 152.399 223.399 136.67 224.324L137.595 211.371Z" fill="#ED9DA0"/>
<path d="M0.0010376 294.27L2.8616 291.006L51.781 235.196L53.6315 197.262L73.0609 164.878L78.6123 151C78.6123 151 91.5655 152.388 80.9254 178.757L76.5306 192.866C80.4922 201.399 82.5445 210.693 82.5444 220.101V252.433C82.5444 260.047 46.2644 301.516 42.0414 307.851L0.0010376 294.27Z" fill="#ED9DA0"/>
<path opacity="0.2" d="M77.0876 167.623L73.225 165.724L73.3566 165.457L76.9255 167.211L82.3129 153.085L82.5918 153.192L77.0876 167.623Z" fill="black"/>
<path opacity="0.2" d="M150.036 158.03L150.139 158.31L144.417 160.418L144.313 160.138L150.036 158.03Z" fill="black"/>
<path opacity="0.2" d="M150.036 175.342L150.139 175.622L144.417 177.73L144.313 177.45L150.036 175.342Z" fill="black"/>
<path opacity="0.2" d="M150.036 193.848L150.139 194.128L144.417 196.236L144.313 195.956L150.036 193.848Z" fill="black"/>
<path opacity="0.2" d="M147.037 212.359L147.166 212.628L144.38 213.965L144.251 213.696L147.037 212.359Z" fill="black"/>
<g clip-path="url(#clip0_2653_16932)">
<path d="M254.882 240H108.122C104.644 239.996 101.308 238.608 98.8487 236.138C96.389 233.669 95.0056 230.321 95.002 226.829V13.1711C95.0056 9.67871 96.3892 6.33044 98.8493 3.86112C101.309 1.3918 104.645 0.00317301 108.124 0H254.882C258.36 0.00361367 261.695 1.39244 264.155 3.86171C266.615 6.33099 267.998 9.679 268.002 13.1711V226.829C267.998 230.321 266.615 233.669 264.155 236.138C261.695 238.608 258.36 239.996 254.882 240Z" fill="#090814"/>
<path d="M255.48 231.517H108.206C107.134 231.515 106.106 231.087 105.348 230.326C104.59 229.565 104.163 228.533 104.162 227.457V12.3835C104.163 11.3071 104.59 10.2751 105.348 9.51398C106.106 8.75286 107.134 8.32472 108.206 8.32349H255.48C256.552 8.32419 257.581 8.7521 258.339 9.51328C259.098 10.2745 259.525 11.3067 259.526 12.3835V227.457C259.525 228.533 259.098 229.566 258.339 230.327C257.581 231.088 256.552 231.516 255.48 231.517Z" fill="white"/>
<path d="M181.502 7C182.883 7 184.002 5.88071 184.002 4.5C184.002 3.11929 182.883 2 181.502 2C180.121 2 179.002 3.11929 179.002 4.5C179.002 5.88071 180.121 7 181.502 7Z" fill="white"/>
<path d="M127.002 155.05V173.95C127.002 174.53 131.34 175 136.691 175H226.313C231.664 175 236.002 174.53 236.002 173.95V155.05C236.002 154.47 231.664 154 226.313 154H136.691C131.34 154 127.002 154.47 127.002 155.05Z" fill="#F2F2F2"/>
<path d="M127.002 128.05V146.95C127.002 147.53 131.34 148 136.691 148H226.313C231.664 148 236.002 147.53 236.002 146.95V128.05C236.002 127.47 231.664 127 226.313 127H136.691C131.34 127 127.002 127.47 127.002 128.05Z" fill="#F2F2F2"/>
<path d="M127.002 101.05V119.95C127.002 120.53 131.34 121 136.691 121H226.313C231.664 121 236.002 120.53 236.002 119.95V101.05C236.002 100.47 231.664 100 226.313 100H136.691C131.34 100 127.002 100.47 127.002 101.05Z" fill="#F2F2F2"/>
<path d="M168.357 166.803C168.357 166.627 168.33 166.471 168.275 166.334C168.225 166.197 168.133 166.072 168 165.959C167.867 165.846 167.68 165.736 167.438 165.631C167.199 165.521 166.895 165.41 166.523 165.297C166.117 165.172 165.742 165.033 165.398 164.881C165.059 164.725 164.762 164.545 164.508 164.342C164.254 164.135 164.057 163.898 163.916 163.633C163.775 163.363 163.705 163.053 163.705 162.701C163.705 162.354 163.777 162.037 163.922 161.752C164.07 161.467 164.279 161.221 164.549 161.014C164.822 160.803 165.145 160.641 165.516 160.527C165.887 160.41 166.297 160.352 166.746 160.352C167.379 160.352 167.924 160.469 168.381 160.703C168.842 160.938 169.195 161.252 169.441 161.646C169.691 162.041 169.816 162.477 169.816 162.953H168.357C168.357 162.672 168.297 162.424 168.176 162.209C168.059 161.99 167.879 161.818 167.637 161.693C167.398 161.568 167.096 161.506 166.729 161.506C166.381 161.506 166.092 161.559 165.861 161.664C165.631 161.77 165.459 161.912 165.346 162.092C165.232 162.271 165.176 162.475 165.176 162.701C165.176 162.861 165.213 163.008 165.287 163.141C165.361 163.27 165.475 163.391 165.627 163.504C165.779 163.613 165.971 163.717 166.201 163.814C166.432 163.912 166.703 164.006 167.016 164.096C167.488 164.236 167.9 164.393 168.252 164.564C168.604 164.732 168.896 164.924 169.131 165.139C169.365 165.354 169.541 165.598 169.658 165.871C169.775 166.141 169.834 166.447 169.834 166.791C169.834 167.15 169.762 167.475 169.617 167.764C169.473 168.049 169.266 168.293 168.996 168.496C168.73 168.695 168.41 168.85 168.035 168.959C167.664 169.064 167.25 169.117 166.793 169.117C166.383 169.117 165.979 169.062 165.58 168.953C165.186 168.844 164.826 168.678 164.502 168.455C164.178 168.229 163.92 167.947 163.729 167.611C163.537 167.271 163.441 166.875 163.441 166.422H164.912C164.912 166.699 164.959 166.936 165.053 167.131C165.15 167.326 165.285 167.486 165.457 167.611C165.629 167.732 165.828 167.822 166.055 167.881C166.285 167.939 166.531 167.969 166.793 167.969C167.137 167.969 167.424 167.92 167.654 167.822C167.889 167.725 168.064 167.588 168.182 167.412C168.299 167.236 168.357 167.033 168.357 166.803ZM172.506 162.66V169H171.088V162.66H172.506ZM170.994 160.996C170.994 160.781 171.064 160.604 171.205 160.463C171.35 160.318 171.549 160.246 171.803 160.246C172.053 160.246 172.25 160.318 172.395 160.463C172.539 160.604 172.611 160.781 172.611 160.996C172.611 161.207 172.539 161.383 172.395 161.523C172.25 161.664 172.053 161.734 171.803 161.734C171.549 161.734 171.35 161.664 171.205 161.523C171.064 161.383 170.994 161.207 170.994 160.996ZM178.113 162.66H179.396V168.824C179.396 169.395 179.275 169.879 179.033 170.277C178.791 170.676 178.453 170.979 178.02 171.186C177.586 171.396 177.084 171.502 176.514 171.502C176.271 171.502 176.002 171.467 175.705 171.396C175.412 171.326 175.127 171.213 174.85 171.057C174.576 170.904 174.348 170.703 174.164 170.453L174.826 169.621C175.053 169.891 175.303 170.088 175.576 170.213C175.85 170.338 176.137 170.4 176.438 170.4C176.762 170.4 177.037 170.34 177.264 170.219C177.494 170.102 177.672 169.928 177.797 169.697C177.922 169.467 177.984 169.186 177.984 168.854V164.096L178.113 162.66ZM173.807 165.9V165.777C173.807 165.297 173.865 164.859 173.982 164.465C174.1 164.066 174.268 163.725 174.486 163.439C174.705 163.15 174.971 162.93 175.283 162.777C175.596 162.621 175.949 162.543 176.344 162.543C176.754 162.543 177.104 162.617 177.393 162.766C177.686 162.914 177.93 163.127 178.125 163.404C178.32 163.678 178.473 164.006 178.582 164.389C178.695 164.768 178.779 165.189 178.834 165.654V166.047C178.783 166.5 178.697 166.914 178.576 167.289C178.455 167.664 178.295 167.988 178.096 168.262C177.896 168.535 177.65 168.746 177.357 168.895C177.068 169.043 176.727 169.117 176.332 169.117C175.945 169.117 175.596 169.037 175.283 168.877C174.975 168.717 174.709 168.492 174.486 168.203C174.268 167.914 174.1 167.574 173.982 167.184C173.865 166.789 173.807 166.361 173.807 165.9ZM175.219 165.777V165.9C175.219 166.189 175.246 166.459 175.301 166.709C175.359 166.959 175.447 167.18 175.564 167.371C175.686 167.559 175.838 167.707 176.021 167.816C176.209 167.922 176.43 167.975 176.684 167.975C177.016 167.975 177.287 167.904 177.498 167.764C177.713 167.623 177.877 167.434 177.99 167.195C178.107 166.953 178.189 166.684 178.236 166.387V165.326C178.213 165.096 178.164 164.881 178.09 164.682C178.02 164.482 177.924 164.309 177.803 164.16C177.682 164.008 177.529 163.891 177.346 163.809C177.162 163.723 176.945 163.68 176.695 163.68C176.441 163.68 176.221 163.734 176.033 163.844C175.846 163.953 175.691 164.104 175.57 164.295C175.453 164.486 175.365 164.709 175.307 164.963C175.248 165.217 175.219 165.488 175.219 165.777ZM182.262 164.014V169H180.85V162.66H182.18L182.262 164.014ZM182.01 165.596L181.553 165.59C181.557 165.141 181.619 164.729 181.74 164.354C181.865 163.979 182.037 163.656 182.256 163.387C182.479 163.117 182.744 162.91 183.053 162.766C183.361 162.617 183.705 162.543 184.084 162.543C184.389 162.543 184.664 162.586 184.91 162.672C185.16 162.754 185.373 162.889 185.549 163.076C185.729 163.264 185.865 163.508 185.959 163.809C186.053 164.105 186.1 164.471 186.1 164.904V169H184.682V164.898C184.682 164.594 184.637 164.354 184.547 164.178C184.461 163.998 184.334 163.871 184.166 163.797C184.002 163.719 183.797 163.68 183.551 163.68C183.309 163.68 183.092 163.73 182.9 163.832C182.709 163.934 182.547 164.072 182.414 164.248C182.285 164.424 182.186 164.627 182.115 164.857C182.045 165.088 182.01 165.334 182.01 165.596ZM192.041 162.66V169H190.623V162.66H192.041ZM190.529 160.996C190.529 160.781 190.6 160.604 190.74 160.463C190.885 160.318 191.084 160.246 191.338 160.246C191.588 160.246 191.785 160.318 191.93 160.463C192.074 160.604 192.146 160.781 192.146 160.996C192.146 161.207 192.074 161.383 191.93 161.523C191.785 161.664 191.588 161.734 191.338 161.734C191.084 161.734 190.885 161.664 190.74 161.523C190.6 161.383 190.529 161.207 190.529 160.996ZM194.988 164.014V169H193.576V162.66H194.906L194.988 164.014ZM194.736 165.596L194.279 165.59C194.283 165.141 194.346 164.729 194.467 164.354C194.592 163.979 194.764 163.656 194.982 163.387C195.205 163.117 195.471 162.91 195.779 162.766C196.088 162.617 196.432 162.543 196.811 162.543C197.115 162.543 197.391 162.586 197.637 162.672C197.887 162.754 198.1 162.889 198.275 163.076C198.455 163.264 198.592 163.508 198.686 163.809C198.779 164.105 198.826 164.471 198.826 164.904V169H197.408V164.898C197.408 164.594 197.363 164.354 197.273 164.178C197.188 163.998 197.061 163.871 196.893 163.797C196.729 163.719 196.523 163.68 196.277 163.68C196.035 163.68 195.818 163.73 195.627 163.832C195.436 163.934 195.273 164.072 195.141 164.248C195.012 164.424 194.912 164.627 194.842 164.857C194.771 165.088 194.736 165.334 194.736 165.596Z" fill="#68262A"/>
<path d="M200.625 62.3113C200.625 66.1307 199.492 69.8643 197.37 73.04C195.248 76.2158 192.232 78.691 188.703 80.1526C185.175 81.6142 181.292 81.9966 177.546 81.2515C173.8 80.5064 170.359 78.6671 167.658 75.9664C164.957 73.2657 163.118 69.8247 162.373 66.0787C161.628 62.3327 162.01 58.4498 163.472 54.9211C164.934 51.3925 167.409 48.3765 170.584 46.2546C173.76 44.1326 177.494 43 181.313 43C186.435 43 191.347 45.0345 194.968 48.6561C198.59 52.2777 200.625 57.1896 200.625 62.3113Z" fill="#68262A"/>
<path fill-rule="evenodd" clip-rule="evenodd" d="M176.792 56.3746C176.792 55.2539 177.237 54.179 178.029 53.3866C178.822 52.5941 179.897 52.1489 181.017 52.1489C182.138 52.1489 183.213 52.5941 184.005 53.3866C184.798 54.179 185.243 55.2539 185.243 56.3746C185.243 57.4953 184.798 58.5701 184.005 59.3625C183.213 60.155 182.138 60.6002 181.017 60.6002C179.897 60.6002 178.822 60.155 178.029 59.3625C177.237 58.5701 176.792 57.4953 176.792 56.3746ZM176.792 62.713C175.391 62.713 174.047 63.2695 173.057 64.2601C172.066 65.2507 171.51 66.5942 171.51 67.9951C171.51 68.8356 171.844 69.6417 172.438 70.236C173.032 70.8304 173.838 71.1643 174.679 71.1643H187.356C188.196 71.1643 189.003 70.8304 189.597 70.236C190.191 69.6417 190.525 68.8356 190.525 67.9951C190.525 66.5942 189.969 65.2507 188.978 64.2601C187.987 63.2695 186.644 62.713 185.243 62.713H176.792Z" fill="white"/>
<circle cx="142.564" cy="110.562" r="2.5625" fill="#68262A"/>
<circle cx="157.939" cy="110.562" r="2.5625" fill="#68262A"/>
<circle cx="173.314" cy="110.562" r="2.5625" fill="#68262A"/>
<circle cx="188.689" cy="110.562" r="2.5625" fill="#68262A"/>
<circle cx="204.064" cy="110.562" r="2.5625" fill="#68262A"/>
<circle cx="219.439" cy="110.562" r="2.5625" fill="#68262A"/>
<circle cx="142.564" cy="137.562" r="2.5625" fill="#68262A"/>
<circle cx="157.939" cy="137.562" r="2.5625" fill="#68262A"/>
<circle cx="173.314" cy="137.562" r="2.5625" fill="#68262A"/>
<circle cx="188.689" cy="137.562" r="2.5625" fill="#68262A"/>
<circle cx="204.064" cy="137.562" r="2.5625" fill="#68262A"/>
<circle cx="219.439" cy="137.562" r="2.5625" fill="#68262A"/>
</g>
<defs>
<clipPath id="clip0_2653_16932">
<rect width="173" height="240" fill="white" transform="translate(95.002)"/>
</clipPath>
</defs>
</svg>
