<svg width="391" height="80" viewBox="0 0 391 80" fill="none" xmlns="http://www.w3.org/2000/svg">
<g filter="url(#filter0_d_2999_4488)">
<rect x="15" y="10" width="361" height="50" rx="25" fill="#68262A"/>
</g>
<path d="M120.136 29.8H121.912V39.336H126.984V41H120.136V29.8ZM133.279 38.504L134.895 38.744C134.447 40.28 133.311 41.192 131.487 41.16C129.407 41.16 128.015 39.736 128.015 37.048C128.015 34.248 129.407 32.84 131.487 32.84C133.263 32.84 135.055 33.832 134.991 37.384H129.615C129.679 38.44 130.063 39.656 131.487 39.656C132.607 39.656 133.071 39.16 133.279 38.504ZM131.487 34.328C130.335 34.328 129.855 35.176 129.679 36.12H133.295C133.055 34.744 132.319 34.328 131.487 34.328ZM135.774 33H137.262V32.984C137.262 32.456 137.646 30.824 137.982 30.824H138.91V33H141.006V34.536H138.91V38.248C138.91 38.968 138.91 39.464 139.934 39.464H141.006V41H139.182C137.726 41 137.262 39.912 137.262 38.152V34.536H135.774V33ZM142.78 29.8H144.796L143.164 33.56H141.916L142.78 29.8ZM149.439 41.144C147.599 41.144 146.367 40.312 145.839 38.808L147.407 38.376C147.727 39.224 148.511 39.608 149.455 39.608C150.335 39.608 150.815 39.336 150.815 38.744C150.815 38.04 149.839 37.784 149.023 37.608C147.375 37.272 146.127 36.648 146.127 35.16C146.127 33.688 147.215 32.84 149.199 32.84C151.007 32.84 152.015 33.704 152.479 35.176L150.943 35.56C150.607 34.6 149.967 34.376 149.103 34.376C148.287 34.376 147.775 34.68 147.775 35.208C147.775 35.928 148.703 36.104 149.551 36.296C151.119 36.648 152.479 37.16 152.479 38.712C152.479 40.184 151.343 41.144 149.439 41.144ZM162.555 41.16C159.579 41.16 157.755 39.016 157.755 35.512C157.755 31.704 159.483 29.64 162.603 29.64C165.003 29.64 166.491 30.76 167.131 32.872L165.403 33.432C164.987 32.088 164.075 31.304 162.603 31.304C160.603 31.304 159.531 32.952 159.531 35.512C159.531 37.704 160.603 39.48 162.555 39.496C164.347 39.496 165.179 38.056 165.467 36.376H161.915V34.824H167.259V41H166.331C165.995 41 165.611 39.352 165.611 38.824V38.776C165.115 40.232 164.187 41.16 162.555 41.16ZM174.232 38.504L175.848 38.744C175.4 40.28 174.264 41.192 172.44 41.16C170.36 41.16 168.968 39.736 168.968 37.048C168.968 34.248 170.36 32.84 172.44 32.84C174.216 32.84 176.008 33.832 175.944 37.384H170.568C170.632 38.44 171.016 39.656 172.44 39.656C173.56 39.656 174.024 39.16 174.232 38.504ZM172.44 34.328C171.288 34.328 170.808 35.176 170.632 36.12H174.248C174.008 34.744 173.272 34.328 172.44 34.328ZM176.727 33H178.215V32.984C178.215 32.456 178.599 30.824 178.935 30.824H179.863V33H181.959V34.536H179.863V38.248C179.863 38.968 179.863 39.464 180.887 39.464H181.959V41H180.135C178.679 41 178.215 39.912 178.215 38.152V34.536H176.727V33ZM191.513 41.144C189.177 41.144 187.577 40.008 186.825 37.896L188.457 37.432C188.905 39.064 190.201 39.496 191.513 39.496C192.729 39.496 193.641 38.808 193.641 37.864C193.641 36.632 192.265 36.488 190.937 36.168C188.889 35.656 187.241 35.208 187.241 32.856C187.241 31.08 188.761 29.64 191.177 29.64C193.401 29.64 194.825 30.888 195.433 32.872L193.865 33.304C193.385 31.88 192.521 31.304 191.033 31.304C190.041 31.304 189.017 31.752 189.017 32.92C189.017 34.04 190.489 34.312 191.641 34.552C193.529 34.936 195.417 35.528 195.417 37.768C195.417 39.544 193.833 41.144 191.513 41.144ZM196.242 33H197.73V32.984C197.73 32.456 198.114 30.824 198.45 30.824H199.378V33H201.474V34.536H199.378V38.248C199.378 38.968 199.378 39.464 200.402 39.464H201.474V41H199.65C198.194 41 197.73 39.912 197.73 38.152V34.536H196.242V33ZM204.369 35.656L202.865 35.176C203.233 33.88 204.401 32.84 206.289 32.84C208.481 32.84 209.553 34.488 209.553 36.312V41H208.609C208.321 41 208.001 39.8 207.905 39.112C207.569 40.392 206.833 41.16 205.393 41.16C203.633 41.16 202.465 40.072 202.449 38.536C202.449 36.312 205.617 36.216 207.889 36.216C207.873 35.144 207.345 34.376 206.289 34.376C205.233 34.376 204.673 34.808 204.369 35.656ZM204.113 38.456C204.113 39.08 204.609 39.672 205.665 39.672C207.009 39.672 207.681 38.872 207.841 37.304C206.017 37.32 204.113 37.4 204.113 38.456ZM211.65 41V33H212.578C212.85 33 213.17 34.136 213.266 34.824C213.714 33.576 214.546 32.84 215.954 32.84V34.488C214.418 34.488 213.346 35.464 213.298 37.624V41H211.65ZM216.586 33H218.074V32.984C218.074 32.456 218.458 30.824 218.794 30.824H219.722V33H221.818V34.536H219.722V38.248C219.722 38.968 219.722 39.464 220.746 39.464H221.818V41H219.994C218.538 41 218.074 39.912 218.074 38.152V34.536H216.586V33ZM228.201 38.504L229.817 38.744C229.369 40.28 228.233 41.192 226.409 41.16C224.329 41.16 222.937 39.736 222.937 37.048C222.937 34.248 224.329 32.84 226.409 32.84C228.185 32.84 229.977 33.832 229.913 37.384H224.537C224.601 38.44 224.985 39.656 226.409 39.656C227.529 39.656 227.993 39.16 228.201 38.504ZM226.409 34.328C225.257 34.328 224.777 35.176 224.601 36.12H228.217C227.977 34.744 227.241 34.328 226.409 34.328ZM234.322 32.824C235.634 32.824 236.306 33.464 236.642 34.536V29.8H238.306V41H237.362C237.106 41 236.802 39.992 236.69 39.288C236.37 40.456 235.698 41.16 234.338 41.16C232.002 41.16 231.218 39.272 231.218 37V36.984C231.218 34.696 232.002 32.824 234.322 32.824ZM234.658 34.36C233.394 34.36 232.882 35.592 232.882 37C232.882 38.408 233.394 39.624 234.642 39.624C236.002 39.624 236.53 38.792 236.642 37.128V36.856C236.53 35.208 236.002 34.36 234.658 34.36Z" fill="white"/>
<path d="M256 34H268.17L262.58 28.41L264 27L272 35L264 43L262.59 41.59L268.17 36H256V34Z" fill="white"/>
<defs>
<filter id="filter0_d_2999_4488" x="0" y="0" width="391" height="80" filterUnits="userSpaceOnUse" color-interpolation-filters="sRGB">
<feFlood flood-opacity="0" result="BackgroundImageFix"/>
<feColorMatrix in="SourceAlpha" type="matrix" values="0 0 0 0 0 0 0 0 0 0 0 0 0 0 0 0 0 0 127 0" result="hardAlpha"/>
<feOffset dy="5"/>
<feGaussianBlur stdDeviation="7.5"/>
<feComposite in2="hardAlpha" operator="out"/>
<feColorMatrix type="matrix" values="0 0 0 0 0 0 0 0 0 0 0 0 0 0 0 0 0 0 0.16 0"/>
<feBlend mode="normal" in2="BackgroundImageFix" result="effect1_dropShadow_2999_4488"/>
<feBlend mode="normal" in="SourceGraphic" in2="effect1_dropShadow_2999_4488" result="shape"/>
</filter>
</defs>
</svg>
