<svg width="9" height="9" viewBox="0 0 9 9" fill="none" xmlns="http://www.w3.org/2000/svg">
<path d="M4.58861 1.97668L5.21547 4.11286C5.23636 4.1835 5.27636 4.24699 5.33104 4.29634C5.38572 4.34569 5.45297 4.37899 5.52537 4.39256C5.59777 4.40613 5.67251 4.39945 5.74135 4.37324C5.81019 4.34704 5.87047 4.30235 5.91552 4.24407L6.96201 2.88316M7.59927 3.19959L6.39916 6.79989M1.83638 2.88316L2.88247 4.24447C2.92756 4.30274 2.98786 4.34742 3.05673 4.3736C3.1256 4.39977 3.20035 4.40642 3.27276 4.39281C3.34516 4.3792 3.4124 4.34585 3.46706 4.29646C3.52172 4.24706 3.56168 4.18353 3.58253 4.11286L4.20938 1.97668M2.39883 6.79989L1.19873 3.19959M1.19873 7.59995C1.19873 7.38776 1.28302 7.18426 1.43306 7.03422C1.58311 6.88418 1.78661 6.79989 1.9988 6.79989H6.7992C7.01139 6.79989 7.21489 6.88418 7.36493 7.03422C7.51497 7.18426 7.59927 7.38776 7.59927 7.59995V7.99999C7.59927 8.10608 7.55712 8.20783 7.4821 8.28285C7.40708 8.35787 7.30533 8.40002 7.19923 8.40002H1.59876C1.49267 8.40002 1.39092 8.35787 1.3159 8.28285C1.24088 8.20783 1.19873 8.10608 1.19873 7.99999V7.59995Z" stroke="#68262A" stroke-width="0.8" stroke-linecap="round" stroke-linejoin="round"/>
<path d="M4.40016 2.00016C4.84203 2.00016 5.20023 1.64196 5.20023 1.20009C5.20023 0.758227 4.84203 0.400024 4.40016 0.400024C3.9583 0.400024 3.6001 0.758227 3.6001 1.20009C3.6001 1.64196 3.9583 2.00016 4.40016 2.00016Z" stroke="#68262A" stroke-width="0.8" stroke-linecap="round" stroke-linejoin="round"/>
<path d="M7.60134 3.19987C8.0432 3.19987 8.4014 2.84166 8.4014 2.3998C8.4014 1.95793 8.0432 1.59973 7.60134 1.59973C7.15947 1.59973 6.80127 1.95793 6.80127 2.3998C6.80127 2.84166 7.15947 3.19987 7.60134 3.19987Z" stroke="#68262A" stroke-width="0.8" stroke-linecap="round" stroke-linejoin="round"/>
<path d="M1.19997 3.19987C1.64183 3.19987 2.00004 2.84166 2.00004 2.3998C2.00004 1.95793 1.64183 1.59973 1.19997 1.59973C0.758104 1.59973 0.399902 1.95793 0.399902 2.3998C0.399902 2.84166 0.758104 3.19987 1.19997 3.19987Z" stroke="#68262A" stroke-width="0.8" stroke-linecap="round" stroke-linejoin="round"/>
</svg>
