<svg width="27" height="27" viewBox="0 0 27 27" fill="none" xmlns="http://www.w3.org/2000/svg">
<path d="M3.375 14.625V9H23.625V14.625C23.625 18.8674 23.625 20.9891 22.3065 22.3065C20.988 23.6239 18.8674 23.625 14.625 23.625H12.375C8.13263 23.625 6.01087 23.625 4.6935 22.3065C3.37612 20.988 3.375 18.8674 3.375 14.625Z" stroke="#68262A" stroke-width="1.5" stroke-linecap="round" stroke-linejoin="round"/>
<path d="M3.375 9L4.34813 6.83663C5.10413 5.15813 5.481 4.32 6.246 3.8475C7.011 3.375 7.99313 3.375 9.95625 3.375H17.0437C19.0069 3.375 19.9879 3.375 20.754 3.8475C21.519 4.32 21.8959 5.15813 22.6519 6.83663L23.625 9M13.5 9V3.375" stroke="#68262A" stroke-width="1.5" stroke-linecap="round"/>
<path d="M9.5625 15.1875H15.75C16.3467 15.1875 16.919 15.4246 17.341 15.8465C17.7629 16.2685 18 16.8408 18 17.4375C18 18.0342 17.7629 18.6065 17.341 19.0285C16.919 19.4504 16.3467 19.6875 15.75 19.6875H14.625M11.25 12.9375L9 15.1875L11.25 17.4375" stroke="#68262A" stroke-width="1.5" stroke-linecap="round" stroke-linejoin="round"/>
</svg>
