<svg width="27" height="27" viewBox="0 0 27 27" fill="none" xmlns="http://www.w3.org/2000/svg">
<path d="M10.89 15.4012L13.5 13.4213L16.0988 15.4012L15.1088 12.195L17.7188 10.125H14.5238L13.5 6.96375L12.4763 10.125H9.28125L11.88 12.195L10.89 15.4012ZM22.5 11.25C22.5 6.2775 18.4725 2.25 13.5 2.25C8.5275 2.25 4.5 6.2775 4.5 11.25C4.5 13.5337 5.355 15.6037 6.75 17.19V25.875L13.5 23.625L20.25 25.875V17.19C21.7006 15.5514 22.501 13.4384 22.5 11.25ZM13.5 4.5C17.2238 4.5 20.25 7.52625 20.25 11.25C20.25 14.9738 17.2238 18 13.5 18C9.77625 18 6.75 14.9738 6.75 11.25C6.75 7.52625 9.77625 4.5 13.5 4.5Z" fill="#68262A"/>
</svg>
