<svg width="60" height="60" viewBox="0 0 60 60" fill="none" xmlns="http://www.w3.org/2000/svg">
<circle cx="30" cy="30" r="30" fill="#FFFAEE"/>
<path d="M34.4375 27.8337C32.9799 28.6105 31.6517 29.6086 30.5 30.7925C29.3546 29.6016 28.0251 28.6026 26.5625 27.8337C26.8325 24.7175 28.16 21.6575 30.5675 19.25C32.9525 21.635 34.2238 24.695 34.4375 27.8337ZM30.5 34.3812C32.9187 30.6912 37.0475 28.25 41.75 28.25C41.75 39.5 31.265 41.615 30.5 41.75C29.735 41.6262 19.25 39.5 19.25 28.25C23.9525 28.25 28.0813 30.6912 30.5 34.3812ZM30.5563 22.8388C29.8138 24.0087 29.2963 25.3025 29.015 26.6525L30.5 27.7438L32.0188 26.6412C31.76 25.2912 31.265 23.9975 30.5563 22.8388ZM30.5 39.4662C30.5 39.4662 37.25 38.375 39.2075 30.7812C32.75 32.75 30.5 38.4875 30.5 38.4875C30.5 38.4875 27.125 31.625 21.7925 30.7925C23.75 38.375 30.5 39.4662 30.5 39.4662Z" fill="#68262A"/>
</svg>
