<svg width="582" height="141" viewBox="0 0 582 141" fill="none" xmlns="http://www.w3.org/2000/svg">
<g filter="url(#filter0_d_2586_2669)">
<rect x="15" y="5" width="552" height="111" rx="30" fill="#68262A"/>
<path d="M168.033 75.32C165.899 75.32 163.926 74.9733 162.113 74.28C160.326 73.56 158.766 72.56 157.433 71.28C156.126 69.9733 155.099 68.4533 154.353 66.72C153.606 64.9867 153.233 63.08 153.233 61C153.233 58.92 153.606 57.0133 154.353 55.28C155.099 53.5467 156.139 52.04 157.473 50.76C158.806 49.4533 160.366 48.4533 162.153 47.76C163.966 47.04 165.939 46.68 168.073 46.68C170.233 46.68 172.219 47.0533 174.033 47.8C175.873 48.52 177.433 49.6 178.713 51.04L176.113 53.56C175.046 52.44 173.846 51.6133 172.513 51.08C171.179 50.52 169.753 50.24 168.233 50.24C166.659 50.24 165.193 50.5067 163.833 51.04C162.499 51.5733 161.339 52.32 160.353 53.28C159.366 54.24 158.593 55.3867 158.033 56.72C157.499 58.0267 157.233 59.4533 157.233 61C157.233 62.5467 157.499 63.9867 158.033 65.32C158.593 66.6267 159.366 67.76 160.353 68.72C161.339 69.68 162.499 70.4267 163.833 70.96C165.193 71.4933 166.659 71.76 168.233 71.76C169.753 71.76 171.179 71.4933 172.513 70.96C173.846 70.4 175.046 69.5467 176.113 68.4L178.713 70.92C177.433 72.36 175.873 73.4533 174.033 74.2C172.219 74.9467 170.219 75.32 168.033 75.32ZM196.355 75V70.52L196.155 69.68V62.04C196.155 60.4133 195.675 59.16 194.715 58.28C193.781 57.3733 192.368 56.92 190.475 56.92C189.221 56.92 187.995 57.1333 186.795 57.56C185.595 57.96 184.581 58.5067 183.755 59.2L182.155 56.32C183.248 55.44 184.555 54.7733 186.075 54.32C187.621 53.84 189.235 53.6 190.915 53.6C193.821 53.6 196.061 54.3067 197.635 55.72C199.208 57.1333 199.995 59.2933 199.995 62.2V75H196.355ZM189.395 75.24C187.821 75.24 186.435 74.9733 185.235 74.44C184.061 73.9067 183.155 73.1733 182.515 72.24C181.875 71.28 181.555 70.2 181.555 69C181.555 67.8533 181.821 66.8133 182.355 65.88C182.915 64.9467 183.808 64.2 185.035 63.64C186.288 63.08 187.968 62.8 190.075 62.8H196.795V65.56H190.235C188.315 65.56 187.021 65.88 186.355 66.52C185.688 67.16 185.355 67.9333 185.355 68.84C185.355 69.88 185.768 70.72 186.595 71.36C187.421 71.9733 188.568 72.28 190.035 72.28C191.475 72.28 192.728 71.96 193.795 71.32C194.888 70.68 195.675 69.7467 196.155 68.52L196.915 71.16C196.408 72.4133 195.515 73.4133 194.235 74.16C192.955 74.88 191.341 75.24 189.395 75.24ZM218.341 75.24C216.581 75.24 214.968 74.84 213.501 74.04C212.061 73.2133 210.901 72 210.021 70.4C209.168 68.8 208.741 66.8 208.741 64.4C208.741 62 209.154 60 209.981 58.4C210.834 56.8 211.981 55.6 213.421 54.8C214.888 54 216.528 53.6 218.341 53.6C220.421 53.6 222.261 54.0533 223.861 54.96C225.461 55.8667 226.728 57.1333 227.661 58.76C228.594 60.36 229.061 62.24 229.061 64.4C229.061 66.56 228.594 68.4533 227.661 70.08C226.728 71.7067 225.461 72.9733 223.861 73.88C222.261 74.7867 220.421 75.24 218.341 75.24ZM207.101 82.76V53.8H210.781V59.52L210.541 64.44L210.941 69.36V82.76H207.101ZM218.021 71.88C219.381 71.88 220.594 71.5733 221.661 70.96C222.754 70.3467 223.608 69.48 224.221 68.36C224.861 67.2133 225.181 65.8933 225.181 64.4C225.181 62.88 224.861 61.5733 224.221 60.48C223.608 59.36 222.754 58.4933 221.661 57.88C220.594 57.2667 219.381 56.96 218.021 56.96C216.688 56.96 215.474 57.2667 214.381 57.88C213.314 58.4933 212.461 59.36 211.821 60.48C211.208 61.5733 210.901 62.88 210.901 64.4C210.901 65.8933 211.208 67.2133 211.821 68.36C212.461 69.48 213.314 70.3467 214.381 70.96C215.474 71.5733 216.688 71.88 218.021 71.88ZM241.647 75.24C239.513 75.24 237.86 74.6667 236.687 73.52C235.513 72.3733 234.927 70.7333 234.927 68.6V49.16H238.767V68.44C238.767 69.5867 239.047 70.4667 239.607 71.08C240.193 71.6933 241.02 72 242.087 72C243.287 72 244.287 71.6667 245.087 71L246.287 73.76C245.7 74.2667 244.993 74.64 244.167 74.88C243.367 75.12 242.527 75.24 241.647 75.24ZM231.327 56.96V53.8H244.847V56.96H231.327ZM259.849 75.24C258.036 75.24 256.436 74.9067 255.049 74.24C253.689 73.5733 252.622 72.56 251.849 71.2C251.102 69.8133 250.729 68.08 250.729 66V53.8H254.569V65.56C254.569 67.64 255.062 69.2 256.049 70.24C257.062 71.28 258.476 71.8 260.289 71.8C261.622 71.8 262.782 71.5333 263.769 71C264.756 70.44 265.516 69.64 266.049 68.6C266.582 67.5333 266.849 66.2533 266.849 64.76V53.8H270.689V75H267.049V69.28L267.649 70.8C266.956 72.2133 265.916 73.3067 264.529 74.08C263.142 74.8533 261.582 75.24 259.849 75.24ZM277.999 75V53.8H281.679V59.56L281.319 58.12C281.906 56.6533 282.893 55.5333 284.279 54.76C285.666 53.9867 287.373 53.6 289.399 53.6V57.32C289.239 57.2933 289.079 57.28 288.919 57.28C288.786 57.28 288.653 57.28 288.519 57.28C286.466 57.28 284.839 57.8933 283.639 59.12C282.439 60.3467 281.839 62.12 281.839 64.44V75H277.999ZM303.377 75.24C301.11 75.24 299.11 74.7733 297.377 73.84C295.67 72.9067 294.337 71.6267 293.377 70C292.444 68.3733 291.977 66.5067 291.977 64.4C291.977 62.2933 292.43 60.4267 293.337 58.8C294.27 57.1733 295.537 55.9067 297.137 55C298.764 54.0667 300.59 53.6 302.617 53.6C304.67 53.6 306.484 54.0533 308.057 54.96C309.63 55.8667 310.857 57.1467 311.737 58.8C312.644 60.4267 313.097 62.3333 313.097 64.52C313.097 64.68 313.084 64.8667 313.057 65.08C313.057 65.2933 313.044 65.4933 313.017 65.68H294.977V62.92H311.017L309.457 63.88C309.484 62.52 309.204 61.3067 308.617 60.24C308.03 59.1733 307.217 58.3467 306.177 57.76C305.164 57.1467 303.977 56.84 302.617 56.84C301.284 56.84 300.097 57.1467 299.057 57.76C298.017 58.3467 297.204 59.1867 296.617 60.28C296.03 61.3467 295.737 62.5733 295.737 63.96V64.6C295.737 66.0133 296.057 67.28 296.697 68.4C297.364 69.4933 298.284 70.3467 299.457 70.96C300.63 71.5733 301.977 71.88 303.497 71.88C304.75 71.88 305.884 71.6667 306.897 71.24C307.937 70.8133 308.844 70.1733 309.617 69.32L311.737 71.8C310.777 72.92 309.577 73.7733 308.137 74.36C306.724 74.9467 305.137 75.24 303.377 75.24ZM329.731 75V47H333.011L345.571 68.16H343.811L356.211 47H359.491L359.531 75H355.691L355.651 53.04H356.571L345.531 71.6H343.691L332.571 53.04H333.571V75H329.731ZM368.294 83C367.281 83 366.294 82.8267 365.334 82.48C364.374 82.16 363.548 81.68 362.854 81.04L364.494 78.16C365.028 78.6667 365.614 79.0533 366.254 79.32C366.894 79.5867 367.574 79.72 368.294 79.72C369.228 79.72 370.001 79.48 370.614 79C371.228 78.52 371.801 77.6667 372.334 76.44L373.654 73.52L374.054 73.04L382.374 53.8H386.134L375.854 77.12C375.241 78.6133 374.548 79.7867 373.774 80.64C373.028 81.4933 372.201 82.0933 371.294 82.44C370.388 82.8133 369.388 83 368.294 83ZM373.334 75.68L363.654 53.8H367.654L375.894 72.68L373.334 75.68ZM401.02 75V47H405.02V71.52H420.18V75H401.02ZM433.017 75.24C430.884 75.24 428.99 74.7733 427.337 73.84C425.684 72.9067 424.377 71.6267 423.417 70C422.457 68.3467 421.977 66.48 421.977 64.4C421.977 62.2933 422.457 60.4267 423.417 58.8C424.377 57.1733 425.684 55.9067 427.337 55C428.99 54.0667 430.884 53.6 433.017 53.6C435.124 53.6 437.004 54.0667 438.657 55C440.337 55.9067 441.644 57.1733 442.577 58.8C443.537 60.4 444.017 62.2667 444.017 64.4C444.017 66.5067 443.537 68.3733 442.577 70C441.644 71.6267 440.337 72.9067 438.657 73.84C437.004 74.7733 435.124 75.24 433.017 75.24ZM433.017 71.88C434.377 71.88 435.59 71.5733 436.657 70.96C437.75 70.3467 438.604 69.48 439.217 68.36C439.83 67.2133 440.137 65.8933 440.137 64.4C440.137 62.88 439.83 61.5733 439.217 60.48C438.604 59.36 437.75 58.4933 436.657 57.88C435.59 57.2667 434.377 56.96 433.017 56.96C431.657 56.96 430.444 57.2667 429.377 57.88C428.31 58.4933 427.457 59.36 426.817 60.48C426.177 61.5733 425.857 62.88 425.857 64.4C425.857 65.8933 426.177 67.2133 426.817 68.36C427.457 69.48 428.31 70.3467 429.377 70.96C430.444 71.5733 431.657 71.88 433.017 71.88ZM458.408 75.24C456.274 75.24 454.381 74.7733 452.728 73.84C451.074 72.9067 449.768 71.6267 448.808 70C447.848 68.3467 447.368 66.48 447.368 64.4C447.368 62.2933 447.848 60.4267 448.808 58.8C449.768 57.1733 451.074 55.9067 452.728 55C454.381 54.0667 456.274 53.6 458.408 53.6C460.514 53.6 462.394 54.0667 464.048 55C465.728 55.9067 467.034 57.1733 467.968 58.8C468.928 60.4 469.408 62.2667 469.408 64.4C469.408 66.5067 468.928 68.3733 467.968 70C467.034 71.6267 465.728 72.9067 464.048 73.84C462.394 74.7733 460.514 75.24 458.408 75.24ZM458.408 71.88C459.768 71.88 460.981 71.5733 462.048 70.96C463.141 70.3467 463.994 69.48 464.608 68.36C465.221 67.2133 465.528 65.8933 465.528 64.4C465.528 62.88 465.221 61.5733 464.608 60.48C463.994 59.36 463.141 58.4933 462.048 57.88C460.981 57.2667 459.768 56.96 458.408 56.96C457.048 56.96 455.834 57.2667 454.768 57.88C453.701 58.4933 452.848 59.36 452.208 60.48C451.568 61.5733 451.248 62.88 451.248 64.4C451.248 65.8933 451.568 67.2133 452.208 68.36C452.848 69.48 453.701 70.3467 454.768 70.96C455.834 71.5733 457.048 71.88 458.408 71.88ZM477.838 69.88L477.918 64.96L490.118 53.8H494.758L485.398 63L483.318 64.76L477.838 69.88ZM474.718 75V45.32H478.558V75H474.718ZM490.918 75L482.598 64.68L485.078 61.6L495.638 75H490.918Z" fill="white"/>
<path d="M103.5 60.5417C102.892 60.5417 102.309 60.7831 101.88 61.2129C101.45 61.6427 101.208 62.2255 101.208 62.8333C101.208 63.4411 101.45 64.024 101.88 64.4538C102.309 64.8836 102.892 65.125 103.5 65.125C103.801 65.125 104.099 65.0657 104.377 64.9506C104.655 64.8354 104.908 64.6666 105.12 64.4538C105.333 64.241 105.502 63.9884 105.617 63.7103C105.732 63.4323 105.792 63.1343 105.792 62.8333C105.792 62.5324 105.732 62.2344 105.617 61.9564C105.502 61.6783 105.333 61.4257 105.12 61.2129C104.908 61.0001 104.655 60.8313 104.377 60.7161C104.099 60.6009 103.801 60.5417 103.5 60.5417ZM114.5 60.5417C113.892 60.5417 113.309 60.7831 112.88 61.2129C112.45 61.6427 112.208 62.2255 112.208 62.8333C112.208 63.4411 112.45 64.024 112.88 64.4538C113.309 64.8836 113.892 65.125 114.5 65.125C115.108 65.125 115.691 64.8836 116.12 64.4538C116.55 64.024 116.792 63.4411 116.792 62.8333C116.792 62.2255 116.55 61.6427 116.12 61.2129C115.691 60.7831 115.108 60.5417 114.5 60.5417ZM109 42.6667C106.592 42.6667 104.208 43.1409 101.984 44.0622C99.7598 44.9835 97.7388 46.334 96.0364 48.0364C92.5982 51.4745 90.6667 56.1377 90.6667 61C90.6667 65.8623 92.5982 70.5255 96.0364 73.9636C97.7388 75.666 99.7598 77.0165 101.984 77.9378C104.208 78.8591 106.592 79.3333 109 79.3333C113.862 79.3333 118.525 77.4018 121.964 73.9636C125.402 70.5255 127.333 65.8623 127.333 61C127.333 58.5924 126.859 56.2084 125.938 53.9841C125.016 51.7598 123.666 49.7388 121.964 48.0364C120.261 46.334 118.24 44.9835 116.016 44.0622C113.792 43.1409 111.408 42.6667 109 42.6667ZM109 75.6667C105.11 75.6667 101.38 74.1214 98.6291 71.3709C95.8786 68.6204 94.3333 64.8898 94.3333 61C94.2767 60.476 94.2767 59.9474 94.3333 59.4233C98.7002 57.5126 102.157 53.9838 103.977 49.5783C105.667 51.9741 107.909 53.929 110.512 55.2785C113.115 56.628 116.004 57.3327 118.937 57.3333C120.33 57.3333 121.705 57.1683 123.062 56.8567C125.353 64.6667 120.917 72.7883 113.143 75.0617C111.75 75.465 110.393 75.6667 109 75.6667ZM87 42.6667C87 41.6942 87.3863 40.7616 88.0739 40.0739C88.7616 39.3863 89.6942 39 90.6667 39H98V42.6667H90.6667V50H87V42.6667ZM131 79.3333C131 80.3058 130.614 81.2384 129.926 81.9261C129.238 82.6137 128.306 83 127.333 83H120V79.3333H127.333V72H131V79.3333ZM90.6667 83C89.6942 83 88.7616 82.6137 88.0739 81.9261C87.3863 81.2384 87 80.3058 87 79.3333V72H90.6667V79.3333H98V83H90.6667ZM127.333 39C128.306 39 129.238 39.3863 129.926 40.0739C130.614 40.7616 131 41.6942 131 42.6667V50H127.333V42.6667H120V39H127.333Z" fill="white"/>
</g>
<defs>
<filter id="filter0_d_2586_2669" x="0" y="0" width="582" height="141" filterUnits="userSpaceOnUse" color-interpolation-filters="sRGB">
<feFlood flood-opacity="0" result="BackgroundImageFix"/>
<feColorMatrix in="SourceAlpha" type="matrix" values="0 0 0 0 0 0 0 0 0 0 0 0 0 0 0 0 0 0 127 0" result="hardAlpha"/>
<feOffset dy="10"/>
<feGaussianBlur stdDeviation="7.5"/>
<feComposite in2="hardAlpha" operator="out"/>
<feColorMatrix type="matrix" values="0 0 0 0 0 0 0 0 0 0 0 0 0 0 0 0 0 0 0.25 0"/>
<feBlend mode="normal" in2="BackgroundImageFix" result="effect1_dropShadow_2586_2669"/>
<feBlend mode="normal" in="SourceGraphic" in2="effect1_dropShadow_2586_2669" result="shape"/>
</filter>
</defs>
</svg>
