<svg width="80" height="80" viewBox="0 0 80 80" fill="none" xmlns="http://www.w3.org/2000/svg">
<circle cx="40" cy="40" r="39.75" fill="white" stroke="black" stroke-width="0.5"/>
<path d="M24 53.5768V35.4739C24 34.837 24.142 34.2336 24.426 33.6637C24.71 33.0938 25.1013 32.6244 25.6 32.2557L37.6 23.2042C38.3 22.6678 39.1 22.3997 40 22.3997C40.9 22.3997 41.7 22.6678 42.4 23.2042L54.4 32.2557C54.9 32.6244 55.292 33.0938 55.576 33.6637C55.86 34.2336 56.0013 34.837 56 35.4739V53.5768C56 54.6831 55.608 55.6305 54.824 56.4189C54.04 57.2074 53.0987 57.601 52 57.5997H46C45.4333 57.5997 44.9587 57.4066 44.576 57.0204C44.1933 56.6342 44.0013 56.1568 44 55.5882V45.5311C44 44.9612 43.808 44.4838 43.424 44.0989C43.04 43.7141 42.5653 43.521 42 43.5197H38C37.4333 43.5197 36.9587 43.7128 36.576 44.0989C36.1933 44.4851 36.0013 44.9625 36 45.5311V55.5882C36 56.1581 35.808 56.6362 35.424 57.0224C35.04 57.4086 34.5653 57.601 34 57.5997H28C26.9 57.5997 25.9587 57.2061 25.176 56.4189C24.3933 55.6318 24.0013 54.6844 24 53.5768Z" fill="#71221C"/>
</svg>
