<svg width="58" height="58" viewBox="0 0 58 58" fill="none" xmlns="http://www.w3.org/2000/svg">
<path d="M40.5469 23.2858C40.8623 22.9473 41.034 22.4996 41.0259 22.0369C41.0177 21.5743 40.8303 21.1329 40.5031 20.8057C40.1759 20.4786 39.7346 20.2912 39.2719 20.283C38.8093 20.2748 38.3616 20.4466 38.0231 20.762L24.9993 33.7858L19.1183 27.9048C18.7798 27.5894 18.3321 27.4177 17.8694 27.4258C17.4068 27.434 16.9654 27.6214 16.6383 27.9486C16.3111 28.2758 16.1237 28.7172 16.1155 29.1798C16.1074 29.6424 16.2791 30.0901 16.5945 30.4286L23.7374 37.5715C24.0722 37.9059 24.526 38.0937 24.9993 38.0937C25.4725 38.0937 25.9263 37.9059 26.2612 37.5715L40.5469 23.2858Z" fill="#71221C"/>
<path d="M33.6575 2.85721L36.9313 5.26198C37.5836 5.74055 38.3432 6.05483 39.1432 6.17626L43.1598 6.79293C44.9678 7.07075 46.6399 7.91808 47.9331 9.2117C49.2263 10.5053 50.0731 12.1778 50.3503 13.9858L50.967 18.0001C51.0884 18.8001 51.4027 19.5596 51.8813 20.212L54.286 23.4858C55.3684 24.9605 55.9521 26.7422 55.9521 28.5715C55.9521 30.4008 55.3684 32.1825 54.286 33.6572L51.8813 36.931C51.4019 37.5834 51.0882 38.3425 50.967 39.1429L50.3503 43.1596C50.0725 44.9675 49.2252 46.6397 47.9315 47.9329C46.6379 49.2261 44.9655 50.0729 43.1575 50.3501L39.1432 50.9667C38.3427 51.0879 37.5837 51.4017 36.9313 51.881L33.6575 54.2858C32.1827 55.3682 30.4011 55.9518 28.5717 55.9518C26.7424 55.9518 24.9608 55.3682 23.486 54.2858L20.2122 51.881C19.5598 51.4017 18.8008 51.0879 18.0003 50.9667L13.9836 50.3501C12.1757 50.0723 10.5036 49.2249 9.21037 47.9313C7.91717 46.6377 7.07039 44.9652 6.79317 43.1572L6.17651 39.1429C6.05531 38.3425 5.74156 37.5834 5.26222 36.931L2.85746 33.6572C1.77506 32.1825 1.19141 30.4008 1.19141 28.5715C1.19141 26.7422 1.77506 24.9605 2.85746 23.4858L5.26222 20.212C5.74079 19.5596 6.05508 18.8001 6.17651 18.0001L6.79317 13.9834C7.07099 12.1755 7.91833 10.5033 9.21195 9.21012C10.5056 7.91693 12.178 7.07015 13.986 6.79293L18.0003 6.17626C18.8003 6.05483 19.5598 5.74055 20.2122 5.26198L23.486 2.85721C24.9608 1.77481 26.7424 1.19116 28.5717 1.19116C30.4011 1.19116 32.1827 1.77481 33.6575 2.85721ZM25.6003 5.73578L22.3265 8.14055C21.2098 8.96112 19.9108 9.49869 18.5408 9.70721L14.5265 10.3215C13.4693 10.4835 12.4915 10.9787 11.7352 11.735C10.9789 12.4912 10.4838 13.4691 10.3217 14.5263L9.70746 18.5405C9.49857 19.9097 8.96101 21.2079 8.14079 22.3239L5.73603 25.6001C5.10389 26.4618 4.76306 27.5027 4.76306 28.5715C4.76306 29.6403 5.10389 30.6812 5.73603 31.5429L8.14079 34.8167C8.95984 35.9334 9.49793 37.2334 9.70746 38.6025L10.3217 42.6167C10.6551 44.7858 12.3575 46.4882 14.5265 46.8215L18.5408 47.4358C19.91 47.6447 21.2081 48.1822 22.3241 49.0025L25.6003 51.4072C26.4621 52.0393 27.503 52.3802 28.5717 52.3802C29.6405 52.3802 30.6814 52.0393 31.5432 51.4072L34.817 49.0025C35.9339 48.1827 37.2329 47.646 38.6027 47.4382L42.617 46.8191C43.6738 46.6572 44.6514 46.1624 45.4077 45.4066C46.1639 44.6508 46.6593 43.6735 46.8217 42.6167L47.436 38.6025C47.6449 37.2333 48.1825 35.9351 49.0027 34.8191L51.4075 31.5429C52.0396 30.6812 52.3804 29.6403 52.3804 28.5715C52.3804 27.5027 52.0396 26.4618 51.4075 25.6001L49.0027 22.3263C48.183 21.2093 47.6462 19.9103 47.4384 18.5405L46.8194 14.5263C46.6575 13.4694 46.1626 12.4918 45.4069 11.7356C44.6511 10.9794 43.6737 10.484 42.617 10.3215L38.6027 9.70721C37.2335 9.49832 35.9354 8.96076 34.8194 8.14055L31.5432 5.73578C30.6814 5.10365 29.6405 4.76281 28.5717 4.76281C27.503 4.76281 26.4621 5.10365 25.6003 5.73578Z" fill="#71221C"/>
</svg>
