<svg width="58" height="54" viewBox="0 0 58 54" fill="none" xmlns="http://www.w3.org/2000/svg">
<path fill-rule="evenodd" clip-rule="evenodd" d="M22.5562 54H35.4438C44.4947 54 49.0216 54 52.2725 51.795C53.6756 50.8444 54.8838 49.617 55.8279 48.183C58 44.883 58 40.284 58 31.0921C58 21.9001 58 17.3011 55.8279 14.0011C54.8838 12.5671 53.6756 11.3397 52.2725 10.3891C50.1845 8.97012 47.5687 8.46312 43.5638 8.28312C41.6527 8.28312 40.0084 6.81312 39.6343 4.90813C39.3484 3.51274 38.6056 2.26224 37.5314 1.36799C36.4571 0.473735 35.1174 -0.00943441 33.7386 0.000139592H24.2614C21.3962 0.000139592 18.9283 2.05513 18.3657 4.90813C17.9916 6.81312 16.3473 8.28312 14.4362 8.28312C10.4342 8.46312 7.8184 8.97312 5.7275 10.3891C4.32546 11.34 3.11829 12.5674 2.175 14.0011C0 17.3011 0 21.8971 0 31.0921C0 40.287 1.72853e-07 44.88 2.1721 48.183C3.1117 49.611 4.3181 50.838 5.7275 51.795C8.9784 54 13.5053 54 22.5562 54ZM29 18.8191C22.3271 18.8191 16.9157 24.3121 16.9157 31.0891C16.9157 37.866 22.33 43.368 29 43.368C35.67 43.368 41.0843 37.872 41.0843 31.0951C41.0843 24.3181 35.67 18.8191 29 18.8191ZM29 23.7271C24.998 23.7271 21.75 27.0241 21.75 31.0921C21.75 35.1571 24.998 38.454 29 38.454C33.002 38.454 36.25 35.1571 36.25 31.0921C36.25 27.0271 33.002 23.7271 29 23.7271ZM42.6938 21.2731C42.6938 19.9171 43.7755 18.8191 45.1124 18.8191H48.3314C49.6654 18.8191 50.75 19.9171 50.75 21.2731C50.7439 21.9298 50.486 22.5571 50.0331 23.0172C49.5801 23.4774 48.9691 23.7327 48.3343 23.7271H45.1124C44.7978 23.7302 44.4857 23.6693 44.1939 23.5477C43.9021 23.4261 43.6364 23.2462 43.4118 23.0183C43.1872 22.7904 43.0082 22.519 42.885 22.2196C42.7618 21.9201 42.6968 21.5985 42.6938 21.2731Z" fill="#68262A"/>
</svg>
