<svg width="609" height="153" viewBox="0 0 609 153" fill="none" xmlns="http://www.w3.org/2000/svg">
<rect x="1" y="1" width="607" height="151" rx="29" fill="black" fill-opacity="0.4" stroke="white" stroke-width="2"/>
<path d="M141.165 81.3949V81.9535M141.165 81.9535C141.165 79.1406 139.116 76.74 136.321 76.2774L132.468 75.6402V78.5174M141.165 81.9535V89.0674C141.165 95.3206 141.165 98.4472 140.206 100.936C138.738 104.742 135.717 107.75 131.894 109.211C129.394 110.167 126.254 110.167 119.973 110.167C116.679 110.167 115.032 110.167 113.499 109.831C111.161 109.319 108.987 108.237 107.172 106.682C105.983 105.662 104.995 104.35 103.019 101.727L94.3101 90.1665C92.972 88.3902 93.0105 85.9377 94.4036 84.2038C96.2244 81.9378 99.6193 81.7506 101.68 83.8026L106.087 88.479V60.3235C106.087 57.6596 108.229 55.5 110.871 55.5C113.513 55.5 115.654 57.6596 115.654 60.3235V69.8859M132.468 78.5174C132.468 75.3396 129.873 72.763 126.671 72.763H123.771V75.6402M132.468 78.5174V81.3949M115.654 69.8859H117.973C121.175 69.8859 123.771 72.4624 123.771 75.6402M115.654 69.8859V78.5174M123.771 75.6402V78.5174" stroke="white" stroke-width="5.375" stroke-linecap="round" stroke-linejoin="round"/>
<path d="M141.165 62.3681C141.043 53.8819 140.414 49.0708 137.19 45.8431C133.186 41.8335 126.741 41.8335 113.85 41.8335H100.177C87.2866 41.8335 80.8412 41.8335 76.8366 45.8431C72.832 49.8528 72.832 56.3062 72.832 69.213V76.0579C72.832 82.4365 72.832 85.6256 73.8728 88.1416C75.2605 91.4958 77.9222 94.1608 81.2724 95.5503C82.6651 96.1281 84.2646 96.3854 86.4987 96.5002" stroke="white" stroke-width="5.375" stroke-linecap="round"/>
<path d="M199.2 93.5V62.85H187.2V58.5H216.15V62.85H204.15V93.5H199.2ZM229.511 93.8C226.845 93.8 224.478 93.2167 222.411 92.05C220.345 90.8833 218.711 89.2833 217.511 87.25C216.311 85.1833 215.711 82.85 215.711 80.25C215.711 77.6167 216.311 75.2833 217.511 73.25C218.711 71.2167 220.345 69.6333 222.411 68.5C224.478 67.3333 226.845 66.75 229.511 66.75C232.145 66.75 234.495 67.3333 236.561 68.5C238.661 69.6333 240.295 71.2167 241.461 73.25C242.661 75.25 243.261 77.5833 243.261 80.25C243.261 82.8833 242.661 85.2167 241.461 87.25C240.295 89.2833 238.661 90.8833 236.561 92.05C234.495 93.2167 232.145 93.8 229.511 93.8ZM229.511 89.6C231.211 89.6 232.728 89.2167 234.061 88.45C235.428 87.6833 236.495 86.6 237.261 85.2C238.028 83.7667 238.411 82.1167 238.411 80.25C238.411 78.35 238.028 76.7167 237.261 75.35C236.495 73.95 235.428 72.8667 234.061 72.1C232.728 71.3333 231.211 70.95 229.511 70.95C227.811 70.95 226.295 71.3333 224.961 72.1C223.628 72.8667 222.561 73.95 221.761 75.35C220.961 76.7167 220.561 78.35 220.561 80.25C220.561 82.1167 220.961 83.7667 221.761 85.2C222.561 86.6 223.628 87.6833 224.961 88.45C226.295 89.2167 227.811 89.6 229.511 89.6ZM261.05 93.8C258.783 93.8 256.783 93.3833 255.05 92.55C253.35 91.7167 252.016 90.45 251.05 88.75C250.116 87.0167 249.65 84.85 249.65 82.25V67H254.45V81.7C254.45 84.3 255.066 86.25 256.3 87.55C257.566 88.85 259.333 89.5 261.6 89.5C263.266 89.5 264.716 89.1667 265.95 88.5C267.183 87.8 268.133 86.8 268.8 85.5C269.466 84.1667 269.8 82.5667 269.8 80.7V67H274.6V93.5H270.05V86.35L270.8 88.25C269.933 90.0167 268.633 91.3833 266.9 92.35C265.166 93.3167 263.216 93.8 261.05 93.8ZM295.288 93.8C292.588 93.8 290.171 93.2167 288.038 92.05C285.938 90.8833 284.288 89.2833 283.088 87.25C281.888 85.2167 281.288 82.8833 281.288 80.25C281.288 77.6167 281.888 75.2833 283.088 73.25C284.288 71.2167 285.938 69.6333 288.038 68.5C290.171 67.3333 292.588 66.75 295.288 66.75C297.688 66.75 299.821 67.2333 301.688 68.2C303.588 69.1333 305.054 70.5333 306.088 72.4L302.438 74.75C301.571 73.45 300.504 72.5 299.238 71.9C298.004 71.2667 296.671 70.95 295.238 70.95C293.504 70.95 291.954 71.3333 290.588 72.1C289.221 72.8667 288.138 73.95 287.338 75.35C286.538 76.7167 286.138 78.35 286.138 80.25C286.138 82.15 286.538 83.8 287.338 85.2C288.138 86.6 289.221 87.6833 290.588 88.45C291.954 89.2167 293.504 89.6 295.238 89.6C296.671 89.6 298.004 89.3 299.238 88.7C300.504 88.0667 301.571 87.1 302.438 85.8L306.088 88.1C305.054 89.9333 303.588 91.35 301.688 92.35C299.821 93.3167 297.688 93.8 295.288 93.8ZM311.96 93.5V56.4H316.76V74.15L315.81 72.25C316.677 70.5167 318.01 69.1667 319.81 68.2C321.61 67.2333 323.71 66.75 326.11 66.75C328.277 66.75 330.177 67.1667 331.81 68C333.477 68.8333 334.777 70.1 335.71 71.8C336.643 73.5 337.11 75.65 337.11 78.25V93.5H332.31V78.8C332.31 76.2333 331.677 74.3 330.41 73C329.177 71.7 327.427 71.05 325.16 71.05C323.46 71.05 321.977 71.3833 320.71 72.05C319.443 72.7167 318.46 73.7 317.76 75C317.093 76.3 316.76 77.9167 316.76 79.85V93.5H311.96ZM368.521 93.8C365.854 93.8 363.788 93.0833 362.321 91.65C360.854 90.2167 360.121 88.1667 360.121 85.5V61.2H364.921V85.3C364.921 86.7333 365.271 87.8333 365.971 88.6C366.704 89.3667 367.738 89.75 369.071 89.75C370.571 89.75 371.821 89.3333 372.821 88.5L374.321 91.95C373.588 92.5833 372.704 93.05 371.671 93.35C370.671 93.65 369.621 93.8 368.521 93.8ZM355.621 70.95V67H372.521V70.95H355.621ZM390.595 93.8C387.929 93.8 385.562 93.2167 383.495 92.05C381.429 90.8833 379.795 89.2833 378.595 87.25C377.395 85.1833 376.795 82.85 376.795 80.25C376.795 77.6167 377.395 75.2833 378.595 73.25C379.795 71.2167 381.429 69.6333 383.495 68.5C385.562 67.3333 387.929 66.75 390.595 66.75C393.229 66.75 395.579 67.3333 397.645 68.5C399.745 69.6333 401.379 71.2167 402.545 73.25C403.745 75.25 404.345 77.5833 404.345 80.25C404.345 82.8833 403.745 85.2167 402.545 87.25C401.379 89.2833 399.745 90.8833 397.645 92.05C395.579 93.2167 393.229 93.8 390.595 93.8ZM390.595 89.6C392.295 89.6 393.812 89.2167 395.145 88.45C396.512 87.6833 397.579 86.6 398.345 85.2C399.112 83.7667 399.495 82.1167 399.495 80.25C399.495 78.35 399.112 76.7167 398.345 75.35C397.579 73.95 396.512 72.8667 395.145 72.1C393.812 71.3333 392.295 70.95 390.595 70.95C388.895 70.95 387.379 71.3333 386.045 72.1C384.712 72.8667 383.645 73.95 382.845 75.35C382.045 76.7167 381.645 78.35 381.645 80.25C381.645 82.1167 382.045 83.7667 382.845 85.2C383.645 86.6 384.712 87.6833 386.045 88.45C387.379 89.2167 388.895 89.6 390.595 89.6ZM435.311 93.9C432.645 93.9 430.095 93.5 427.661 92.7C425.228 91.8667 423.311 90.8 421.911 89.5L423.761 85.6C425.095 86.7667 426.795 87.7333 428.861 88.5C430.928 89.2667 433.078 89.65 435.311 89.65C437.345 89.65 438.995 89.4167 440.261 88.95C441.528 88.4833 442.461 87.85 443.061 87.05C443.661 86.2167 443.961 85.2833 443.961 84.25C443.961 83.05 443.561 82.0833 442.761 81.35C441.995 80.6167 440.978 80.0333 439.711 79.6C438.478 79.1333 437.111 78.7333 435.611 78.4C434.111 78.0667 432.595 77.6833 431.061 77.25C429.561 76.7833 428.178 76.2 426.911 75.5C425.678 74.8 424.678 73.8667 423.911 72.7C423.145 71.5 422.761 69.9667 422.761 68.1C422.761 66.3 423.228 64.65 424.161 63.15C425.128 61.6167 426.595 60.4 428.561 59.5C430.561 58.5667 433.095 58.1 436.161 58.1C438.195 58.1 440.211 58.3667 442.211 58.9C444.211 59.4333 445.945 60.2 447.411 61.2L445.761 65.2C444.261 64.2 442.678 63.4833 441.011 63.05C439.345 62.5833 437.728 62.35 436.161 62.35C434.195 62.35 432.578 62.6 431.311 63.1C430.045 63.6 429.111 64.2667 428.511 65.1C427.945 65.9333 427.661 66.8667 427.661 67.9C427.661 69.1333 428.045 70.1167 428.811 70.85C429.611 71.5833 430.628 72.1667 431.861 72.6C433.128 73.0333 434.511 73.4333 436.011 73.8C437.511 74.1333 439.011 74.5167 440.511 74.95C442.045 75.3833 443.428 75.95 444.661 76.65C445.928 77.35 446.945 78.2833 447.711 79.45C448.478 80.6167 448.861 82.1167 448.861 83.95C448.861 85.7167 448.378 87.3667 447.411 88.9C446.445 90.4 444.945 91.6167 442.911 92.55C440.911 93.45 438.378 93.9 435.311 93.9ZM464.566 93.8C461.899 93.8 459.833 93.0833 458.366 91.65C456.899 90.2167 456.166 88.1667 456.166 85.5V61.2H460.966V85.3C460.966 86.7333 461.316 87.8333 462.016 88.6C462.749 89.3667 463.783 89.75 465.116 89.75C466.616 89.75 467.866 89.3333 468.866 88.5L470.366 91.95C469.633 92.5833 468.749 93.05 467.716 93.35C466.716 93.65 465.666 93.8 464.566 93.8ZM451.666 70.95V67H468.566V70.95H451.666ZM491.643 93.5V87.9L491.393 86.85V77.3C491.393 75.2667 490.793 73.7 489.593 72.6C488.426 71.4667 486.659 70.9 484.293 70.9C482.726 70.9 481.193 71.1667 479.693 71.7C478.193 72.2 476.926 72.8833 475.893 73.75L473.893 70.15C475.259 69.05 476.893 68.2167 478.793 67.65C480.726 67.05 482.743 66.75 484.843 66.75C488.476 66.75 491.276 67.6333 493.243 69.4C495.209 71.1667 496.193 73.8667 496.193 77.5V93.5H491.643ZM482.943 93.8C480.976 93.8 479.243 93.4667 477.743 92.8C476.276 92.1333 475.143 91.2167 474.343 90.05C473.543 88.85 473.143 87.5 473.143 86C473.143 84.5667 473.476 83.2667 474.143 82.1C474.843 80.9333 475.959 80 477.493 79.3C479.059 78.6 481.159 78.25 483.793 78.25H492.193V81.7H483.993C481.593 81.7 479.976 82.1 479.143 82.9C478.309 83.7 477.893 84.6667 477.893 85.8C477.893 87.1 478.409 88.15 479.443 88.95C480.476 89.7167 481.909 90.1 483.743 90.1C485.543 90.1 487.109 89.7 488.443 88.9C489.809 88.1 490.793 86.9333 491.393 85.4L492.343 88.7C491.709 90.2667 490.593 91.5167 488.993 92.45C487.393 93.35 485.376 93.8 482.943 93.8ZM505.075 93.5V67H509.675V74.2L509.225 72.4C509.959 70.5667 511.192 69.1667 512.925 68.2C514.659 67.2333 516.792 66.75 519.325 66.75V71.4C519.125 71.3667 518.925 71.35 518.725 71.35C518.559 71.35 518.392 71.35 518.225 71.35C515.659 71.35 513.625 72.1167 512.125 73.65C510.625 75.1833 509.875 77.4 509.875 80.3V93.5H505.075ZM535.416 93.8C532.749 93.8 530.682 93.0833 529.216 91.65C527.749 90.2167 527.016 88.1667 527.016 85.5V61.2H531.816V85.3C531.816 86.7333 532.166 87.8333 532.866 88.6C533.599 89.3667 534.632 89.75 535.966 89.75C537.466 89.75 538.716 89.3333 539.716 88.5L541.216 91.95C540.482 92.5833 539.599 93.05 538.566 93.35C537.566 93.65 536.516 93.8 535.416 93.8ZM522.516 70.95V67H539.416V70.95H522.516Z" fill="white"/>
</svg>
