<svg width="14" height="16" viewBox="0 0 14 16" fill="none" xmlns="http://www.w3.org/2000/svg">
<path d="M8.74976 7.69896V14.4398C8.78475 14.6964 8.69726 14.9702 8.49604 15.1498C8.4151 15.2291 8.31896 15.292 8.21313 15.335C8.10729 15.3779 7.99383 15.4 7.87925 15.4C7.76467 15.4 7.65121 15.3779 7.54538 15.335C7.43954 15.292 7.3434 15.2291 7.26246 15.1498L5.50396 13.4304C5.40859 13.3392 5.33608 13.2276 5.29207 13.1044C5.24806 12.9813 5.23374 12.8498 5.25024 12.7204V7.69896H5.224L0.184694 1.38581C0.0426205 1.20748 -0.0214858 0.98141 0.00638272 0.757004C0.0342512 0.532598 0.151829 0.328101 0.333423 0.188197C0.49965 0.0684352 0.683375 0 0.875848 0H13.1242C13.3166 0 13.5003 0.0684352 13.6666 0.188197C13.8482 0.328101 13.9657 0.532598 13.9936 0.757004C14.0215 0.98141 13.9574 1.20748 13.8153 1.38581L8.776 7.69896H8.74976Z" fill="white"/>
</svg>
