<svg width="50" height="50" viewBox="0 0 50 50" fill="none" xmlns="http://www.w3.org/2000/svg">
<circle cx="25" cy="25" r="25" fill="white" fill-opacity="0.25"/>
<path d="M17.4293 13.5645L25.5 21.6348L33.5289 13.6063C33.7062 13.4176 33.9198 13.2666 34.157 13.1624C34.3941 13.0582 34.6498 13.003 34.9088 13C35.4633 13 35.9952 13.2203 36.3873 13.6124C36.7794 14.0045 36.9997 14.5363 36.9997 15.0908C37.0045 15.3471 36.957 15.6017 36.8599 15.839C36.7628 16.0763 36.6183 16.2912 36.4351 16.4707L28.3017 24.4992L36.4351 32.6322C36.7797 32.9693 36.9818 33.4259 36.9997 33.9076C36.9997 34.4621 36.7794 34.9939 36.3873 35.386C35.9952 35.7781 35.4633 35.9983 34.9088 35.9983C34.6423 36.0094 34.3765 35.9649 34.1281 35.8677C33.8798 35.7706 33.6543 35.6228 33.4661 35.4338L25.5 27.3635L17.4502 35.4129C17.2736 35.5954 17.0625 35.7411 16.8293 35.8416C16.596 35.942 16.3452 35.9953 16.0912 35.9983C15.5367 35.9983 15.0048 35.7781 14.6127 35.386C14.2206 34.9939 14.0003 34.4621 14.0003 33.9076C13.9955 33.6513 14.043 33.3966 14.1401 33.1593C14.2372 32.9221 14.3817 32.7071 14.5649 32.5277L22.6983 24.4992L14.5649 16.3661C14.2203 16.029 14.0182 15.5725 14.0003 15.0908C14.0003 14.5363 14.2206 14.0045 14.6127 13.6124C15.0048 13.2203 15.5367 13 16.0912 13C16.593 13.0063 17.0739 13.2091 17.4293 13.5645Z" fill="white"/>
</svg>
