<svg width="50" height="50" viewBox="0 0 50 50" fill="none" xmlns="http://www.w3.org/2000/svg">
<circle cx="25" cy="25" r="25" fill="white" fill-opacity="0.25"/>
<g clip-path="url(#clip0_2748_1458)">
<path d="M11.6175 24.3265C11.6168 26.7631 12.2535 29.1422 13.464 31.2392L11.5017 38.404L18.834 36.4815C20.862 37.5855 23.1342 38.164 25.4433 38.1641H25.4494C33.072 38.1641 39.277 31.9614 39.2802 24.3374C39.2817 20.6431 37.8443 17.1691 35.2327 14.5555C32.6216 11.9422 29.1489 10.5022 25.4488 10.5005C17.8253 10.5005 11.6207 16.7029 11.6176 24.3265" fill="url(#paint0_linear_2748_1458)"/>
<path d="M11.1234 24.322C11.1227 26.8462 11.7821 29.3104 13.0359 31.4825L11.0032 38.9041L18.5984 36.9127C20.6911 38.0537 23.0473 38.6553 25.4448 38.6562H25.451C33.3471 38.6562 39.775 32.2303 39.7784 24.3334C39.7797 20.5063 38.2906 16.9075 35.5857 14.2003C32.8805 11.4934 29.2836 10.0016 25.451 10C17.5536 10 11.1266 16.425 11.1234 24.322ZM15.6467 31.1084L15.3631 30.6582C14.1709 28.7627 13.5417 26.5721 13.5426 24.3229C13.5451 17.7591 18.8869 12.4189 25.4555 12.4189C28.6365 12.4203 31.626 13.6603 33.8745 15.9102C36.1229 18.1602 37.3601 21.1513 37.3593 24.3325C37.3564 30.8963 32.0145 36.2371 25.451 36.2371H25.4463C23.3092 36.236 21.2132 35.6621 19.3853 34.5775L18.9503 34.3195L14.4432 35.5012L15.6467 31.1084Z" fill="url(#paint1_linear_2748_1458)"/>
<path d="M21.8703 18.3344C21.6021 17.7383 21.3199 17.7263 21.0648 17.7158C20.856 17.7069 20.6173 17.7075 20.3787 17.7075C20.14 17.7075 19.7521 17.7973 19.4242 18.1553C19.096 18.5137 18.1711 19.3796 18.1711 21.1409C18.1711 22.9021 19.454 24.6044 19.6328 24.8434C19.8119 25.0821 22.1094 28.8121 25.7481 30.247C28.7722 31.4395 29.3876 31.2023 30.0439 31.1425C30.7004 31.0829 32.1621 30.2768 32.4603 29.4408C32.7587 28.605 32.7587 27.8886 32.6692 27.7388C32.5798 27.5897 32.341 27.5001 31.983 27.3211C31.625 27.1422 29.8649 26.276 29.5368 26.1565C29.2086 26.0372 28.9699 25.9776 28.7312 26.336C28.4924 26.6939 27.8069 27.5001 27.5979 27.7388C27.3892 27.9781 27.1803 28.0079 26.8224 27.8289C26.4641 27.6492 25.3112 27.2717 23.9434 26.0522C22.8791 25.1033 22.1607 23.9315 21.9518 23.5731C21.743 23.2152 21.9295 23.0212 22.109 22.8428C22.2698 22.6824 22.4671 22.4248 22.6462 22.2158C22.8247 22.0067 22.8843 21.8576 23.0037 21.6188C23.1232 21.3799 23.0634 21.1708 22.974 20.9917C22.8843 20.8127 22.1887 19.0422 21.8703 18.3344Z" fill="white"/>
</g>
<defs>
<linearGradient id="paint0_linear_2748_1458" x1="25.391" y1="38.404" x2="25.391" y2="10.5005" gradientUnits="userSpaceOnUse">
<stop stop-color="#1FAF38"/>
<stop offset="1" stop-color="#60D669"/>
</linearGradient>
<linearGradient id="paint1_linear_2748_1458" x1="25.3908" y1="38.9041" x2="25.3908" y2="10" gradientUnits="userSpaceOnUse">
<stop stop-color="#F9F9F9"/>
<stop offset="1" stop-color="white"/>
</linearGradient>
<clipPath id="clip0_2748_1458">
<rect width="28.7825" height="29" fill="white" transform="translate(10.9998 10)"/>
</clipPath>
</defs>
</svg>
